<mxfile host="app.diagrams.net" modified="2024-05-15T14:31:51.934Z" agent="Mozilla/5.0 (Windows NT 10.0; Win64; x64) AppleWebKit/537.36 (KHTML, like Gecko) Chrome/125.0.0.0 Safari/537.36" etag="J6EqgFuGXPYqKxfOa53P" scale="1" border="0" version="24.4.0" type="device" pages="4">
  <diagram name="Página-1" id="DiOMOn2DR9gwLQJfvXUW">
    <mxGraphModel dx="794" dy="378" grid="1" gridSize="10" guides="1" tooltips="1" connect="1" arrows="1" fold="1" page="1" pageScale="1" pageWidth="850" pageHeight="1400" math="0" shadow="0">
      <root>
        <mxCell id="0" />
        <mxCell id="1" parent="0" />
        <mxCell id="_8bXgzSBexlc-20bGcun-2" style="edgeStyle=orthogonalEdgeStyle;rounded=0;orthogonalLoop=1;jettySize=auto;html=1;" parent="1" source="OtxNm6ZqjHJW9qYZtElQ-1" target="_8bXgzSBexlc-20bGcun-1" edge="1">
          <mxGeometry relative="1" as="geometry" />
        </mxCell>
        <mxCell id="OtxNm6ZqjHJW9qYZtElQ-1" value="Robot minisumo&amp;nbsp;&lt;br&gt;INICIO" style="ellipse;whiteSpace=wrap;html=1;" parent="1" vertex="1">
          <mxGeometry x="345" y="100" width="120" height="80" as="geometry" />
        </mxCell>
        <mxCell id="OtxNm6ZqjHJW9qYZtElQ-6" value="No" style="edgeStyle=orthogonalEdgeStyle;rounded=0;orthogonalLoop=1;jettySize=auto;html=1;fontSize=19;labelBackgroundColor=none;" parent="1" source="OtxNm6ZqjHJW9qYZtElQ-3" target="OtxNm6ZqjHJW9qYZtElQ-5" edge="1">
          <mxGeometry y="-10" relative="1" as="geometry">
            <mxPoint as="offset" />
          </mxGeometry>
        </mxCell>
        <mxCell id="OtxNm6ZqjHJW9qYZtElQ-10" value="Si" style="edgeStyle=orthogonalEdgeStyle;rounded=0;orthogonalLoop=1;jettySize=auto;html=1;fontSize=19;labelBackgroundColor=none;" parent="1" source="OtxNm6ZqjHJW9qYZtElQ-3" target="OtxNm6ZqjHJW9qYZtElQ-9" edge="1">
          <mxGeometry y="10" relative="1" as="geometry">
            <mxPoint as="offset" />
          </mxGeometry>
        </mxCell>
        <mxCell id="OtxNm6ZqjHJW9qYZtElQ-3" value="¿Superficie blanca?" style="rhombus;whiteSpace=wrap;html=1;" parent="1" vertex="1">
          <mxGeometry x="360" y="320" width="90" height="80" as="geometry" />
        </mxCell>
        <mxCell id="1bxqBSLl6d81d6kJvqD5-5" style="edgeStyle=orthogonalEdgeStyle;rounded=0;orthogonalLoop=1;jettySize=auto;html=1;entryX=0;entryY=0.5;entryDx=0;entryDy=0;exitX=0.5;exitY=0;exitDx=0;exitDy=0;" parent="1" source="OtxNm6ZqjHJW9qYZtElQ-5" target="_8bXgzSBexlc-20bGcun-1" edge="1">
          <mxGeometry relative="1" as="geometry" />
        </mxCell>
        <mxCell id="OtxNm6ZqjHJW9qYZtElQ-5" value="Estarse quieto" style="whiteSpace=wrap;html=1;" parent="1" vertex="1">
          <mxGeometry x="150" y="330" width="120" height="60" as="geometry" />
        </mxCell>
        <mxCell id="OtxNm6ZqjHJW9qYZtElQ-18" value="No" style="edgeStyle=orthogonalEdgeStyle;rounded=0;orthogonalLoop=1;jettySize=auto;html=1;exitX=0;exitY=0.5;exitDx=0;exitDy=0;entryX=0;entryY=0.75;entryDx=0;entryDy=0;fontSize=18;" parent="1" source="OtxNm6ZqjHJW9qYZtElQ-7" target="OtxNm6ZqjHJW9qYZtElQ-14" edge="1">
          <mxGeometry x="0.0772" y="20" relative="1" as="geometry">
            <mxPoint x="480" y="520" as="targetPoint" />
            <Array as="points">
              <mxPoint x="460" y="560" />
              <mxPoint x="460" y="475" />
            </Array>
            <mxPoint as="offset" />
          </mxGeometry>
        </mxCell>
        <mxCell id="OtxNm6ZqjHJW9qYZtElQ-20" value="Si" style="edgeStyle=orthogonalEdgeStyle;rounded=0;orthogonalLoop=1;jettySize=auto;html=1;fontSize=18;labelBackgroundColor=none;" parent="1" source="OtxNm6ZqjHJW9qYZtElQ-7" target="OtxNm6ZqjHJW9qYZtElQ-19" edge="1">
          <mxGeometry y="20" relative="1" as="geometry">
            <mxPoint as="offset" />
          </mxGeometry>
        </mxCell>
        <mxCell id="OtxNm6ZqjHJW9qYZtElQ-7" value="¿Oponente?" style="rhombus;whiteSpace=wrap;html=1;" parent="1" vertex="1">
          <mxGeometry x="510" y="520" width="120" height="80" as="geometry" />
        </mxCell>
        <mxCell id="OtxNm6ZqjHJW9qYZtElQ-15" value="" style="edgeStyle=orthogonalEdgeStyle;rounded=0;orthogonalLoop=1;jettySize=auto;html=1;" parent="1" source="OtxNm6ZqjHJW9qYZtElQ-9" target="OtxNm6ZqjHJW9qYZtElQ-14" edge="1">
          <mxGeometry relative="1" as="geometry" />
        </mxCell>
        <mxCell id="OtxNm6ZqjHJW9qYZtElQ-9" value="Avanza (2 pasos)" style="whiteSpace=wrap;html=1;" parent="1" vertex="1">
          <mxGeometry x="510" y="330" width="120" height="60" as="geometry" />
        </mxCell>
        <mxCell id="OtxNm6ZqjHJW9qYZtElQ-16" value="" style="edgeStyle=orthogonalEdgeStyle;rounded=0;orthogonalLoop=1;jettySize=auto;html=1;" parent="1" source="OtxNm6ZqjHJW9qYZtElQ-14" target="OtxNm6ZqjHJW9qYZtElQ-7" edge="1">
          <mxGeometry relative="1" as="geometry" />
        </mxCell>
        <mxCell id="OtxNm6ZqjHJW9qYZtElQ-14" value="Dar giros 180°" style="whiteSpace=wrap;html=1;" parent="1" vertex="1">
          <mxGeometry x="510" y="430" width="120" height="60" as="geometry" />
        </mxCell>
        <mxCell id="OtxNm6ZqjHJW9qYZtElQ-22" value="" style="edgeStyle=orthogonalEdgeStyle;rounded=0;orthogonalLoop=1;jettySize=auto;html=1;" parent="1" source="OtxNm6ZqjHJW9qYZtElQ-19" target="OtxNm6ZqjHJW9qYZtElQ-21" edge="1">
          <mxGeometry relative="1" as="geometry" />
        </mxCell>
        <mxCell id="OtxNm6ZqjHJW9qYZtElQ-19" value="Avanza (1 paso)" style="whiteSpace=wrap;html=1;" parent="1" vertex="1">
          <mxGeometry x="710" y="530" width="120" height="60" as="geometry" />
        </mxCell>
        <mxCell id="4g_Xn0lm0OzPHZPX6uis-4" value="" style="edgeStyle=orthogonalEdgeStyle;rounded=0;orthogonalLoop=1;jettySize=auto;html=1;" parent="1" source="OtxNm6ZqjHJW9qYZtElQ-21" target="4g_Xn0lm0OzPHZPX6uis-3" edge="1">
          <mxGeometry relative="1" as="geometry" />
        </mxCell>
        <mxCell id="OtxNm6ZqjHJW9qYZtElQ-21" value="Empuja oponente" style="whiteSpace=wrap;html=1;" parent="1" vertex="1">
          <mxGeometry x="710" y="620" width="120" height="60" as="geometry" />
        </mxCell>
        <mxCell id="OtxNm6ZqjHJW9qYZtElQ-26" value="FIN" style="ellipse;whiteSpace=wrap;html=1;" parent="1" vertex="1">
          <mxGeometry x="450" y="790" width="80" height="80" as="geometry" />
        </mxCell>
        <mxCell id="4g_Xn0lm0OzPHZPX6uis-5" value="No" style="edgeStyle=orthogonalEdgeStyle;rounded=0;orthogonalLoop=1;jettySize=auto;html=1;entryX=0;entryY=0.25;entryDx=0;entryDy=0;fontSize=19;" parent="1" source="4g_Xn0lm0OzPHZPX6uis-3" target="OtxNm6ZqjHJW9qYZtElQ-14" edge="1">
          <mxGeometry x="0.1918" y="-20" relative="1" as="geometry">
            <Array as="points">
              <mxPoint x="360" y="750" />
              <mxPoint x="360" y="445" />
            </Array>
            <mxPoint as="offset" />
          </mxGeometry>
        </mxCell>
        <mxCell id="c7U7Om-6hGtZcQO3wWBv-6" value="Si" style="edgeStyle=orthogonalEdgeStyle;rounded=0;orthogonalLoop=1;jettySize=auto;html=1;exitX=0.5;exitY=1;exitDx=0;exitDy=0;fontSize=17;labelBackgroundColor=none;entryX=1;entryY=0.5;entryDx=0;entryDy=0;" parent="1" source="4g_Xn0lm0OzPHZPX6uis-3" target="1bxqBSLl6d81d6kJvqD5-1" edge="1">
          <mxGeometry y="-10" relative="1" as="geometry">
            <mxPoint as="offset" />
            <mxPoint x="780" y="840" as="targetPoint" />
          </mxGeometry>
        </mxCell>
        <mxCell id="4g_Xn0lm0OzPHZPX6uis-3" value="¿Linea negra?" style="rhombus;whiteSpace=wrap;html=1;" parent="1" vertex="1">
          <mxGeometry x="715" y="710" width="110" height="80" as="geometry" />
        </mxCell>
        <mxCell id="1bxqBSLl6d81d6kJvqD5-2" style="edgeStyle=orthogonalEdgeStyle;rounded=0;orthogonalLoop=1;jettySize=auto;html=1;entryX=1;entryY=0.5;entryDx=0;entryDy=0;" parent="1" source="1bxqBSLl6d81d6kJvqD5-1" target="OtxNm6ZqjHJW9qYZtElQ-26" edge="1">
          <mxGeometry relative="1" as="geometry" />
        </mxCell>
        <mxCell id="1bxqBSLl6d81d6kJvqD5-1" value="Detenerse" style="rounded=0;whiteSpace=wrap;html=1;" parent="1" vertex="1">
          <mxGeometry x="570" y="800" width="120" height="60" as="geometry" />
        </mxCell>
        <mxCell id="_8bXgzSBexlc-20bGcun-3" style="edgeStyle=orthogonalEdgeStyle;rounded=0;orthogonalLoop=1;jettySize=auto;html=1;entryX=0.5;entryY=0;entryDx=0;entryDy=0;" parent="1" source="_8bXgzSBexlc-20bGcun-1" target="OtxNm6ZqjHJW9qYZtElQ-3" edge="1">
          <mxGeometry relative="1" as="geometry" />
        </mxCell>
        <mxCell id="_8bXgzSBexlc-20bGcun-1" value="Percibir superficie" style="whiteSpace=wrap;html=1;" parent="1" vertex="1">
          <mxGeometry x="345" y="220" width="120" height="60" as="geometry" />
        </mxCell>
      </root>
    </mxGraphModel>
  </diagram>
  <diagram name="Copia de Página-1" id="Cs4S8ZVSmZAZALYQ94_L">
    <mxGraphModel dx="2269" dy="1080" grid="1" gridSize="10" guides="1" tooltips="1" connect="1" arrows="1" fold="1" page="1" pageScale="1" pageWidth="850" pageHeight="1400" math="0" shadow="0">
      <root>
        <mxCell id="G6_0WqUlYWE0IOw1ckTz-0" />
        <mxCell id="G6_0WqUlYWE0IOw1ckTz-1" parent="G6_0WqUlYWE0IOw1ckTz-0" />
        <mxCell id="G6_0WqUlYWE0IOw1ckTz-2" style="edgeStyle=orthogonalEdgeStyle;rounded=0;orthogonalLoop=1;jettySize=auto;html=1;" parent="G6_0WqUlYWE0IOw1ckTz-1" source="G6_0WqUlYWE0IOw1ckTz-3" target="G6_0WqUlYWE0IOw1ckTz-27" edge="1">
          <mxGeometry relative="1" as="geometry" />
        </mxCell>
        <mxCell id="G6_0WqUlYWE0IOw1ckTz-3" value="Robot minisumo&amp;nbsp;&lt;br&gt;INICIO" style="ellipse;whiteSpace=wrap;html=1;" parent="G6_0WqUlYWE0IOw1ckTz-1" vertex="1">
          <mxGeometry x="345" y="100" width="120" height="80" as="geometry" />
        </mxCell>
        <mxCell id="G6_0WqUlYWE0IOw1ckTz-4" value="No" style="edgeStyle=orthogonalEdgeStyle;rounded=0;orthogonalLoop=1;jettySize=auto;html=1;fontSize=19;labelBackgroundColor=none;" parent="G6_0WqUlYWE0IOw1ckTz-1" source="G6_0WqUlYWE0IOw1ckTz-6" target="G6_0WqUlYWE0IOw1ckTz-8" edge="1">
          <mxGeometry y="-10" relative="1" as="geometry">
            <mxPoint as="offset" />
          </mxGeometry>
        </mxCell>
        <mxCell id="G6_0WqUlYWE0IOw1ckTz-5" value="Si" style="edgeStyle=orthogonalEdgeStyle;rounded=0;orthogonalLoop=1;jettySize=auto;html=1;fontSize=19;labelBackgroundColor=none;entryX=0.5;entryY=0;entryDx=0;entryDy=0;" parent="G6_0WqUlYWE0IOw1ckTz-1" source="G6_0WqUlYWE0IOw1ckTz-6" target="G6_0WqUlYWE0IOw1ckTz-11" edge="1">
          <mxGeometry x="0.7857" y="20" relative="1" as="geometry">
            <mxPoint as="offset" />
            <mxPoint x="510" y="740" as="targetPoint" />
          </mxGeometry>
        </mxCell>
        <mxCell id="G6_0WqUlYWE0IOw1ckTz-6" value="¿Superficie blanca?" style="rhombus;whiteSpace=wrap;html=1;" parent="G6_0WqUlYWE0IOw1ckTz-1" vertex="1">
          <mxGeometry x="360" y="700" width="90" height="80" as="geometry" />
        </mxCell>
        <mxCell id="d3fiDPDhKWWzGXehrg9W-3" style="edgeStyle=orthogonalEdgeStyle;rounded=0;orthogonalLoop=1;jettySize=auto;html=1;entryX=0;entryY=0.5;entryDx=0;entryDy=0;exitX=0.5;exitY=0;exitDx=0;exitDy=0;" parent="G6_0WqUlYWE0IOw1ckTz-1" source="G6_0WqUlYWE0IOw1ckTz-8" target="d3fiDPDhKWWzGXehrg9W-0" edge="1">
          <mxGeometry relative="1" as="geometry" />
        </mxCell>
        <mxCell id="G6_0WqUlYWE0IOw1ckTz-8" value="Moverse" style="whiteSpace=wrap;html=1;" parent="G6_0WqUlYWE0IOw1ckTz-1" vertex="1">
          <mxGeometry x="150" y="710" width="120" height="60" as="geometry" />
        </mxCell>
        <mxCell id="G6_0WqUlYWE0IOw1ckTz-10" value="Si" style="edgeStyle=orthogonalEdgeStyle;rounded=0;orthogonalLoop=1;jettySize=auto;html=1;fontSize=18;labelBackgroundColor=none;" parent="G6_0WqUlYWE0IOw1ckTz-1" source="G6_0WqUlYWE0IOw1ckTz-11" target="G6_0WqUlYWE0IOw1ckTz-17" edge="1">
          <mxGeometry y="20" relative="1" as="geometry">
            <mxPoint as="offset" />
          </mxGeometry>
        </mxCell>
        <mxCell id="d3fiDPDhKWWzGXehrg9W-5" value="No" style="edgeStyle=orthogonalEdgeStyle;rounded=0;orthogonalLoop=1;jettySize=auto;html=1;exitX=0.5;exitY=1;exitDx=0;exitDy=0;entryX=1;entryY=0.5;entryDx=0;entryDy=0;" parent="G6_0WqUlYWE0IOw1ckTz-1" source="G6_0WqUlYWE0IOw1ckTz-11" target="d3fiDPDhKWWzGXehrg9W-4" edge="1">
          <mxGeometry x="0.4668" y="-10" relative="1" as="geometry">
            <mxPoint as="offset" />
          </mxGeometry>
        </mxCell>
        <mxCell id="G6_0WqUlYWE0IOw1ckTz-11" value="¿Oponente &amp;lt; 10cm?" style="rhombus;whiteSpace=wrap;html=1;" parent="G6_0WqUlYWE0IOw1ckTz-1" vertex="1">
          <mxGeometry x="540" y="810" width="170" height="80" as="geometry" />
        </mxCell>
        <mxCell id="G6_0WqUlYWE0IOw1ckTz-12" value="" style="edgeStyle=orthogonalEdgeStyle;rounded=0;orthogonalLoop=1;jettySize=auto;html=1;" parent="G6_0WqUlYWE0IOw1ckTz-1" edge="1">
          <mxGeometry relative="1" as="geometry">
            <mxPoint x="570" y="510" as="sourcePoint" />
          </mxGeometry>
        </mxCell>
        <mxCell id="G6_0WqUlYWE0IOw1ckTz-16" value="" style="edgeStyle=orthogonalEdgeStyle;rounded=0;orthogonalLoop=1;jettySize=auto;html=1;" parent="G6_0WqUlYWE0IOw1ckTz-1" source="G6_0WqUlYWE0IOw1ckTz-17" target="G6_0WqUlYWE0IOw1ckTz-19" edge="1">
          <mxGeometry relative="1" as="geometry" />
        </mxCell>
        <mxCell id="G6_0WqUlYWE0IOw1ckTz-17" value="Reproducir la nota musical Mi" style="whiteSpace=wrap;html=1;" parent="G6_0WqUlYWE0IOw1ckTz-1" vertex="1">
          <mxGeometry x="780" y="820" width="120" height="60" as="geometry" />
        </mxCell>
        <mxCell id="d3fiDPDhKWWzGXehrg9W-20" value="" style="edgeStyle=orthogonalEdgeStyle;rounded=0;orthogonalLoop=1;jettySize=auto;html=1;" parent="G6_0WqUlYWE0IOw1ckTz-1" source="G6_0WqUlYWE0IOw1ckTz-19" target="d3fiDPDhKWWzGXehrg9W-16" edge="1">
          <mxGeometry relative="1" as="geometry" />
        </mxCell>
        <mxCell id="G6_0WqUlYWE0IOw1ckTz-19" value="Encender LEDs a color rojo" style="whiteSpace=wrap;html=1;" parent="G6_0WqUlYWE0IOw1ckTz-1" vertex="1">
          <mxGeometry x="780" y="910" width="120" height="60" as="geometry" />
        </mxCell>
        <mxCell id="R9iwsWmI5CHO6Fg897NX-1" value="" style="edgeStyle=orthogonalEdgeStyle;rounded=0;orthogonalLoop=1;jettySize=auto;html=1;" edge="1" parent="G6_0WqUlYWE0IOw1ckTz-1" source="G6_0WqUlYWE0IOw1ckTz-23" target="R9iwsWmI5CHO6Fg897NX-0">
          <mxGeometry relative="1" as="geometry" />
        </mxCell>
        <mxCell id="G6_0WqUlYWE0IOw1ckTz-23" value="¿Linea negra?" style="rhombus;whiteSpace=wrap;html=1;" parent="G6_0WqUlYWE0IOw1ckTz-1" vertex="1">
          <mxGeometry x="785" y="1110" width="110" height="80" as="geometry" />
        </mxCell>
        <mxCell id="d3fiDPDhKWWzGXehrg9W-1" style="edgeStyle=orthogonalEdgeStyle;rounded=0;orthogonalLoop=1;jettySize=auto;html=1;entryX=0.5;entryY=0;entryDx=0;entryDy=0;" parent="G6_0WqUlYWE0IOw1ckTz-1" source="G6_0WqUlYWE0IOw1ckTz-27" target="d3fiDPDhKWWzGXehrg9W-0" edge="1">
          <mxGeometry relative="1" as="geometry" />
        </mxCell>
        <mxCell id="G6_0WqUlYWE0IOw1ckTz-27" value="Esperar 5seg" style="whiteSpace=wrap;html=1;" parent="G6_0WqUlYWE0IOw1ckTz-1" vertex="1">
          <mxGeometry x="345" y="220" width="120" height="60" as="geometry" />
        </mxCell>
        <mxCell id="d3fiDPDhKWWzGXehrg9W-25" value="" style="edgeStyle=orthogonalEdgeStyle;rounded=0;orthogonalLoop=1;jettySize=auto;html=1;" parent="G6_0WqUlYWE0IOw1ckTz-1" source="d3fiDPDhKWWzGXehrg9W-0" target="d3fiDPDhKWWzGXehrg9W-24" edge="1">
          <mxGeometry relative="1" as="geometry" />
        </mxCell>
        <mxCell id="d3fiDPDhKWWzGXehrg9W-0" value="Reproducir la nota musical Do" style="whiteSpace=wrap;html=1;" parent="G6_0WqUlYWE0IOw1ckTz-1" vertex="1">
          <mxGeometry x="345" y="320" width="120" height="60" as="geometry" />
        </mxCell>
        <mxCell id="d3fiDPDhKWWzGXehrg9W-11" style="edgeStyle=orthogonalEdgeStyle;rounded=0;orthogonalLoop=1;jettySize=auto;html=1;entryX=1;entryY=0.5;entryDx=0;entryDy=0;" parent="G6_0WqUlYWE0IOw1ckTz-1" source="d3fiDPDhKWWzGXehrg9W-4" target="d3fiDPDhKWWzGXehrg9W-6" edge="1">
          <mxGeometry relative="1" as="geometry" />
        </mxCell>
        <mxCell id="d3fiDPDhKWWzGXehrg9W-4" value="Retroceder" style="whiteSpace=wrap;html=1;" parent="G6_0WqUlYWE0IOw1ckTz-1" vertex="1">
          <mxGeometry x="350" y="930" width="120" height="60" as="geometry" />
        </mxCell>
        <mxCell id="d3fiDPDhKWWzGXehrg9W-12" value="" style="edgeStyle=orthogonalEdgeStyle;rounded=0;orthogonalLoop=1;jettySize=auto;html=1;" parent="G6_0WqUlYWE0IOw1ckTz-1" source="d3fiDPDhKWWzGXehrg9W-6" target="d3fiDPDhKWWzGXehrg9W-9" edge="1">
          <mxGeometry relative="1" as="geometry" />
        </mxCell>
        <mxCell id="d3fiDPDhKWWzGXehrg9W-6" value="Retraso durante 0,5 segundos" style="whiteSpace=wrap;html=1;" parent="G6_0WqUlYWE0IOw1ckTz-1" vertex="1">
          <mxGeometry x="170" y="930" width="120" height="60" as="geometry" />
        </mxCell>
        <mxCell id="d3fiDPDhKWWzGXehrg9W-13" value="" style="edgeStyle=orthogonalEdgeStyle;rounded=0;orthogonalLoop=1;jettySize=auto;html=1;" parent="G6_0WqUlYWE0IOw1ckTz-1" source="d3fiDPDhKWWzGXehrg9W-9" target="d3fiDPDhKWWzGXehrg9W-10" edge="1">
          <mxGeometry relative="1" as="geometry" />
        </mxCell>
        <mxCell id="d3fiDPDhKWWzGXehrg9W-9" value="Girar a la derecha" style="whiteSpace=wrap;html=1;" parent="G6_0WqUlYWE0IOw1ckTz-1" vertex="1">
          <mxGeometry x="170" y="820" width="120" height="60" as="geometry" />
        </mxCell>
        <mxCell id="d3fiDPDhKWWzGXehrg9W-14" value="" style="edgeStyle=orthogonalEdgeStyle;rounded=0;orthogonalLoop=1;jettySize=auto;html=1;" parent="G6_0WqUlYWE0IOw1ckTz-1" source="d3fiDPDhKWWzGXehrg9W-10" target="G6_0WqUlYWE0IOw1ckTz-11" edge="1">
          <mxGeometry relative="1" as="geometry" />
        </mxCell>
        <mxCell id="d3fiDPDhKWWzGXehrg9W-10" value="Retraso durante 0,5 segundos" style="whiteSpace=wrap;html=1;" parent="G6_0WqUlYWE0IOw1ckTz-1" vertex="1">
          <mxGeometry x="350" y="820" width="120" height="60" as="geometry" />
        </mxCell>
        <mxCell id="d3fiDPDhKWWzGXehrg9W-21" value="" style="edgeStyle=orthogonalEdgeStyle;rounded=0;orthogonalLoop=1;jettySize=auto;html=1;" parent="G6_0WqUlYWE0IOw1ckTz-1" source="d3fiDPDhKWWzGXehrg9W-16" target="G6_0WqUlYWE0IOw1ckTz-23" edge="1">
          <mxGeometry relative="1" as="geometry" />
        </mxCell>
        <mxCell id="d3fiDPDhKWWzGXehrg9W-16" value="Avanza al 100% de potencia" style="whiteSpace=wrap;html=1;" parent="G6_0WqUlYWE0IOw1ckTz-1" vertex="1">
          <mxGeometry x="780" y="1010" width="120" height="60" as="geometry" />
        </mxCell>
        <mxCell id="d3fiDPDhKWWzGXehrg9W-29" style="edgeStyle=orthogonalEdgeStyle;rounded=0;orthogonalLoop=1;jettySize=auto;html=1;exitX=0.5;exitY=1;exitDx=0;exitDy=0;entryX=0.5;entryY=0;entryDx=0;entryDy=0;" parent="G6_0WqUlYWE0IOw1ckTz-1" source="d3fiDPDhKWWzGXehrg9W-17" target="d3fiDPDhKWWzGXehrg9W-27" edge="1">
          <mxGeometry relative="1" as="geometry" />
        </mxCell>
        <mxCell id="d3fiDPDhKWWzGXehrg9W-17" value="Girar a la izquierda" style="whiteSpace=wrap;html=1;" parent="G6_0WqUlYWE0IOw1ckTz-1" vertex="1">
          <mxGeometry x="345" y="500" width="120" height="60" as="geometry" />
        </mxCell>
        <mxCell id="d3fiDPDhKWWzGXehrg9W-26" value="" style="edgeStyle=orthogonalEdgeStyle;rounded=0;orthogonalLoop=1;jettySize=auto;html=1;" parent="G6_0WqUlYWE0IOw1ckTz-1" source="d3fiDPDhKWWzGXehrg9W-24" target="d3fiDPDhKWWzGXehrg9W-17" edge="1">
          <mxGeometry relative="1" as="geometry" />
        </mxCell>
        <mxCell id="d3fiDPDhKWWzGXehrg9W-24" value="Encender LEDs a color verde" style="whiteSpace=wrap;html=1;" parent="G6_0WqUlYWE0IOw1ckTz-1" vertex="1">
          <mxGeometry x="345" y="410" width="120" height="60" as="geometry" />
        </mxCell>
        <mxCell id="d3fiDPDhKWWzGXehrg9W-28" value="" style="edgeStyle=orthogonalEdgeStyle;rounded=0;orthogonalLoop=1;jettySize=auto;html=1;" parent="G6_0WqUlYWE0IOw1ckTz-1" source="d3fiDPDhKWWzGXehrg9W-27" target="G6_0WqUlYWE0IOw1ckTz-6" edge="1">
          <mxGeometry relative="1" as="geometry" />
        </mxCell>
        <mxCell id="d3fiDPDhKWWzGXehrg9W-27" value="Medir distancia a linea negra" style="whiteSpace=wrap;html=1;" parent="G6_0WqUlYWE0IOw1ckTz-1" vertex="1">
          <mxGeometry x="345" y="610" width="120" height="60" as="geometry" />
        </mxCell>
        <mxCell id="R9iwsWmI5CHO6Fg897NX-0" value="Detenerse" style="whiteSpace=wrap;html=1;" vertex="1" parent="G6_0WqUlYWE0IOw1ckTz-1">
          <mxGeometry x="590" y="1120" width="120" height="60" as="geometry" />
        </mxCell>
        <mxCell id="R9iwsWmI5CHO6Fg897NX-2" style="edgeStyle=orthogonalEdgeStyle;rounded=0;orthogonalLoop=1;jettySize=auto;html=1;entryX=0;entryY=0.5;entryDx=0;entryDy=0;" edge="1" parent="G6_0WqUlYWE0IOw1ckTz-1" source="R9iwsWmI5CHO6Fg897NX-0" target="G6_0WqUlYWE0IOw1ckTz-27">
          <mxGeometry relative="1" as="geometry">
            <Array as="points">
              <mxPoint x="80" y="1150" />
              <mxPoint x="80" y="250" />
            </Array>
          </mxGeometry>
        </mxCell>
      </root>
    </mxGraphModel>
  </diagram>
  <diagram id="sqxBEo3vInLIFIDrgnFL" name="Página-2">
    <mxGraphModel dx="794" dy="378" grid="1" gridSize="10" guides="1" tooltips="1" connect="1" arrows="1" fold="1" page="1" pageScale="1" pageWidth="1400" pageHeight="850" math="0" shadow="0">
      <root>
        <mxCell id="0" />
        <mxCell id="1" parent="0" />
        <mxCell id="OWOHfKba-ebB4ny3hYLN-1" value="&lt;font style=&quot;font-size: 19px;&quot;&gt;interacts with&lt;/font&gt;" style="edgeStyle=orthogonalEdgeStyle;rounded=0;orthogonalLoop=1;jettySize=auto;html=1;entryX=1;entryY=0.25;entryDx=0;entryDy=0;labelBackgroundColor=none;" parent="1" source="DjCG3_lMmoby0Wiu8xu9-16" target="DjCG3_lMmoby0Wiu8xu9-29" edge="1">
          <mxGeometry x="-0.0097" y="20" relative="1" as="geometry">
            <Array as="points">
              <mxPoint x="1290" y="80" />
              <mxPoint x="1290" y="465" />
            </Array>
            <mxPoint as="offset" />
          </mxGeometry>
        </mxCell>
        <mxCell id="OWOHfKba-ebB4ny3hYLN-7" style="edgeStyle=orthogonalEdgeStyle;rounded=0;orthogonalLoop=1;jettySize=auto;html=1;entryX=0.5;entryY=0;entryDx=0;entryDy=0;" parent="1" source="DjCG3_lMmoby0Wiu8xu9-16" target="DjCG3_lMmoby0Wiu8xu9-44" edge="1">
          <mxGeometry relative="1" as="geometry">
            <Array as="points">
              <mxPoint x="160" y="80" />
            </Array>
          </mxGeometry>
        </mxCell>
        <mxCell id="DjCG3_lMmoby0Wiu8xu9-16" value="&lt;span style=&quot;font-size: 12px; font-weight: 700;&quot;&gt;User&lt;/span&gt;" style="swimlane;childLayout=stackLayout;horizontal=1;startSize=50;horizontalStack=0;rounded=1;fontSize=14;fontStyle=0;strokeWidth=2;resizeParent=0;resizeLast=1;shadow=0;dashed=0;align=center;arcSize=4;whiteSpace=wrap;html=1;fillColor=#dae8fc;strokeColor=#6c8ebf;" parent="1" vertex="1">
          <mxGeometry x="240" y="40" width="160" height="80" as="geometry" />
        </mxCell>
        <mxCell id="DjCG3_lMmoby0Wiu8xu9-18" style="edgeStyle=orthogonalEdgeStyle;rounded=0;orthogonalLoop=1;jettySize=auto;html=1;exitX=0.5;exitY=1;exitDx=0;exitDy=0;" parent="DjCG3_lMmoby0Wiu8xu9-16" edge="1">
          <mxGeometry relative="1" as="geometry">
            <mxPoint x="80" y="80" as="sourcePoint" />
            <mxPoint x="80" y="80" as="targetPoint" />
          </mxGeometry>
        </mxCell>
        <mxCell id="fLeCP5YuJPnMjcPf_pI3-1" style="edgeStyle=orthogonalEdgeStyle;rounded=0;orthogonalLoop=1;jettySize=auto;html=1;endArrow=block;endFill=0;" parent="1" source="DjCG3_lMmoby0Wiu8xu9-21" edge="1">
          <mxGeometry relative="1" as="geometry">
            <Array as="points">
              <mxPoint x="440" y="150" />
              <mxPoint x="440" y="90" />
              <mxPoint x="400" y="90" />
            </Array>
            <mxPoint x="400" y="90" as="targetPoint" />
          </mxGeometry>
        </mxCell>
        <mxCell id="DjCG3_lMmoby0Wiu8xu9-21" value="&lt;span style=&quot;font-size: 12px; font-weight: 700;&quot;&gt;Human Player&lt;/span&gt;" style="swimlane;childLayout=stackLayout;horizontal=1;startSize=50;horizontalStack=0;rounded=1;fontSize=14;fontStyle=0;strokeWidth=2;resizeParent=0;resizeLast=1;shadow=0;dashed=0;align=center;arcSize=4;whiteSpace=wrap;html=1;fillColor=#dae8fc;strokeColor=#6c8ebf;" parent="1" vertex="1">
          <mxGeometry x="550" y="100" width="160" height="80" as="geometry" />
        </mxCell>
        <mxCell id="DjCG3_lMmoby0Wiu8xu9-23" style="edgeStyle=orthogonalEdgeStyle;rounded=0;orthogonalLoop=1;jettySize=auto;html=1;exitX=0.5;exitY=1;exitDx=0;exitDy=0;" parent="DjCG3_lMmoby0Wiu8xu9-21" edge="1">
          <mxGeometry relative="1" as="geometry">
            <mxPoint x="79.99999999999989" y="79.99999999999989" as="sourcePoint" />
            <mxPoint x="79.99999999999989" y="79.99999999999989" as="targetPoint" />
          </mxGeometry>
        </mxCell>
        <mxCell id="DjCG3_lMmoby0Wiu8xu9-26" value="&lt;span style=&quot;font-size: 12px; font-weight: 700;&quot;&gt;Physical Entity&lt;/span&gt;" style="swimlane;childLayout=stackLayout;horizontal=1;startSize=50;horizontalStack=0;rounded=1;fontSize=14;fontStyle=0;strokeWidth=2;resizeParent=0;resizeLast=1;shadow=0;dashed=0;align=center;arcSize=4;whiteSpace=wrap;html=1;fillColor=#ffe6cc;strokeColor=#d79b00;" parent="1" vertex="1">
          <mxGeometry x="970" y="325" width="160" height="80" as="geometry" />
        </mxCell>
        <mxCell id="DjCG3_lMmoby0Wiu8xu9-27" style="edgeStyle=orthogonalEdgeStyle;rounded=0;orthogonalLoop=1;jettySize=auto;html=1;exitX=0.5;exitY=1;exitDx=0;exitDy=0;" parent="DjCG3_lMmoby0Wiu8xu9-26" edge="1">
          <mxGeometry relative="1" as="geometry">
            <mxPoint x="79.99999999999989" y="79.99999999999989" as="sourcePoint" />
            <mxPoint x="79.99999999999989" y="79.99999999999989" as="targetPoint" />
          </mxGeometry>
        </mxCell>
        <mxCell id="DjCG3_lMmoby0Wiu8xu9-28" value="Dojo" style="text;html=1;align=center;verticalAlign=middle;whiteSpace=wrap;rounded=0;" parent="DjCG3_lMmoby0Wiu8xu9-26" vertex="1">
          <mxGeometry y="50" width="160" height="30" as="geometry" />
        </mxCell>
        <mxCell id="DjCG3_lMmoby0Wiu8xu9-29" value="&lt;span style=&quot;font-size: 12px; font-weight: 700;&quot;&gt;Physical Entity&lt;/span&gt;" style="swimlane;childLayout=stackLayout;horizontal=1;startSize=50;horizontalStack=0;rounded=1;fontSize=14;fontStyle=0;strokeWidth=2;resizeParent=0;resizeLast=1;shadow=0;dashed=0;align=center;arcSize=4;whiteSpace=wrap;html=1;fillColor=#ffe6cc;strokeColor=#d79b00;" parent="1" vertex="1">
          <mxGeometry x="970" y="445" width="160" height="80" as="geometry" />
        </mxCell>
        <mxCell id="DjCG3_lMmoby0Wiu8xu9-30" style="edgeStyle=orthogonalEdgeStyle;rounded=0;orthogonalLoop=1;jettySize=auto;html=1;exitX=0.5;exitY=1;exitDx=0;exitDy=0;" parent="DjCG3_lMmoby0Wiu8xu9-29" edge="1">
          <mxGeometry relative="1" as="geometry">
            <mxPoint x="79.99999999999989" y="79.99999999999989" as="sourcePoint" />
            <mxPoint x="79.99999999999989" y="79.99999999999989" as="targetPoint" />
          </mxGeometry>
        </mxCell>
        <mxCell id="DjCG3_lMmoby0Wiu8xu9-31" value="Minisumo" style="text;html=1;align=center;verticalAlign=middle;whiteSpace=wrap;rounded=0;" parent="DjCG3_lMmoby0Wiu8xu9-29" vertex="1">
          <mxGeometry y="50" width="160" height="30" as="geometry" />
        </mxCell>
        <mxCell id="DjCG3_lMmoby0Wiu8xu9-63" value="with" style="edgeStyle=orthogonalEdgeStyle;rounded=0;orthogonalLoop=1;jettySize=auto;html=1;entryX=0.75;entryY=1;entryDx=0;entryDy=0;dashed=1;dashPattern=8 8;strokeWidth=3;fontSize=19;" parent="1" source="DjCG3_lMmoby0Wiu8xu9-38" target="DjCG3_lMmoby0Wiu8xu9-16" edge="1">
          <mxGeometry x="-0.5699" y="15" relative="1" as="geometry">
            <mxPoint as="offset" />
            <mxPoint x="360" y="260" as="targetPoint" />
          </mxGeometry>
        </mxCell>
        <mxCell id="DjCG3_lMmoby0Wiu8xu9-66" value="associated" style="edgeStyle=orthogonalEdgeStyle;rounded=0;orthogonalLoop=1;jettySize=auto;html=1;entryX=1;entryY=0.25;entryDx=0;entryDy=0;fontSize=19;labelBackgroundColor=none;" parent="1" source="DjCG3_lMmoby0Wiu8xu9-38" target="DjCG3_lMmoby0Wiu8xu9-44" edge="1">
          <mxGeometry x="-0.4133" y="-10" relative="1" as="geometry">
            <Array as="points">
              <mxPoint x="320" y="330" />
              <mxPoint x="320" y="365" />
            </Array>
            <mxPoint as="offset" />
          </mxGeometry>
        </mxCell>
        <mxCell id="OWOHfKba-ebB4ny3hYLN-4" value="&#xa;&lt;span style=&quot;color: rgb(0, 0, 0); font-family: Helvetica; font-size: 19px; font-style: normal; font-variant-ligatures: normal; font-variant-caps: normal; font-weight: 400; letter-spacing: normal; orphans: 2; text-align: center; text-indent: 0px; text-transform: none; widows: 2; word-spacing: 0px; -webkit-text-stroke-width: 0px; white-space: nowrap; text-decoration-thickness: initial; text-decoration-style: initial; text-decoration-color: initial; float: none; display: inline !important;&quot;&gt;relates to&lt;/span&gt;&#xa;&#xa;" style="edgeStyle=orthogonalEdgeStyle;rounded=0;orthogonalLoop=1;jettySize=auto;html=1;entryX=0;entryY=0.5;entryDx=0;entryDy=0;labelBackgroundColor=none;" parent="1" source="DjCG3_lMmoby0Wiu8xu9-38" target="DjCG3_lMmoby0Wiu8xu9-26" edge="1">
          <mxGeometry x="0.0909" y="5" relative="1" as="geometry">
            <mxPoint as="offset" />
          </mxGeometry>
        </mxCell>
        <mxCell id="DjCG3_lMmoby0Wiu8xu9-38" value="&lt;span style=&quot;font-size: 12px; font-weight: 700;&quot;&gt;Virtual Entity&lt;/span&gt;" style="swimlane;childLayout=stackLayout;horizontal=1;startSize=50;horizontalStack=0;rounded=1;fontSize=14;fontStyle=0;strokeWidth=2;resizeParent=0;resizeLast=1;shadow=0;dashed=0;align=center;arcSize=4;whiteSpace=wrap;html=1;fillColor=#d5e8d4;strokeColor=#82b366;" parent="1" vertex="1">
          <mxGeometry x="580" y="325" width="160" height="80" as="geometry" />
        </mxCell>
        <mxCell id="DjCG3_lMmoby0Wiu8xu9-39" style="edgeStyle=orthogonalEdgeStyle;rounded=0;orthogonalLoop=1;jettySize=auto;html=1;exitX=0.5;exitY=1;exitDx=0;exitDy=0;" parent="DjCG3_lMmoby0Wiu8xu9-38" edge="1">
          <mxGeometry relative="1" as="geometry">
            <mxPoint x="79.99999999999989" y="79.99999999999989" as="sourcePoint" />
            <mxPoint x="79.99999999999989" y="79.99999999999989" as="targetPoint" />
          </mxGeometry>
        </mxCell>
        <mxCell id="DjCG3_lMmoby0Wiu8xu9-40" value="Dojo Virtual" style="text;html=1;align=center;verticalAlign=middle;whiteSpace=wrap;rounded=0;" parent="DjCG3_lMmoby0Wiu8xu9-38" vertex="1">
          <mxGeometry y="50" width="160" height="30" as="geometry" />
        </mxCell>
        <mxCell id="OWOHfKba-ebB4ny3hYLN-5" value="&lt;font style=&quot;font-size: 19px;&quot;&gt;relates to&lt;/font&gt;" style="edgeStyle=orthogonalEdgeStyle;rounded=0;orthogonalLoop=1;jettySize=auto;html=1;entryX=0;entryY=0.5;entryDx=0;entryDy=0;" parent="1" source="DjCG3_lMmoby0Wiu8xu9-41" target="DjCG3_lMmoby0Wiu8xu9-29" edge="1">
          <mxGeometry x="0.0909" y="15" relative="1" as="geometry">
            <mxPoint as="offset" />
          </mxGeometry>
        </mxCell>
        <mxCell id="DjCG3_lMmoby0Wiu8xu9-41" value="&lt;span style=&quot;font-size: 12px; font-weight: 700;&quot;&gt;Virtual Entity&lt;/span&gt;" style="swimlane;childLayout=stackLayout;horizontal=1;startSize=50;horizontalStack=0;rounded=1;fontSize=14;fontStyle=0;strokeWidth=2;resizeParent=0;resizeLast=1;shadow=0;dashed=0;align=center;arcSize=4;whiteSpace=wrap;html=1;fillColor=#d5e8d4;strokeColor=#82b366;" parent="1" vertex="1">
          <mxGeometry x="580" y="445" width="160" height="80" as="geometry" />
        </mxCell>
        <mxCell id="DjCG3_lMmoby0Wiu8xu9-42" style="edgeStyle=orthogonalEdgeStyle;rounded=0;orthogonalLoop=1;jettySize=auto;html=1;exitX=0.5;exitY=1;exitDx=0;exitDy=0;" parent="DjCG3_lMmoby0Wiu8xu9-41" edge="1">
          <mxGeometry relative="1" as="geometry">
            <mxPoint x="79.99999999999989" y="79.99999999999989" as="sourcePoint" />
            <mxPoint x="79.99999999999989" y="79.99999999999989" as="targetPoint" />
          </mxGeometry>
        </mxCell>
        <mxCell id="DjCG3_lMmoby0Wiu8xu9-43" value="Minisumo Virtual" style="text;html=1;align=center;verticalAlign=middle;whiteSpace=wrap;rounded=0;" parent="DjCG3_lMmoby0Wiu8xu9-41" vertex="1">
          <mxGeometry y="50" width="160" height="30" as="geometry" />
        </mxCell>
        <mxCell id="1U1Mx15DlKrWZK0IdF5e-1" style="edgeStyle=orthogonalEdgeStyle;rounded=0;orthogonalLoop=1;jettySize=auto;html=1;entryX=0.5;entryY=1;entryDx=0;entryDy=0;" parent="1" source="DjCG3_lMmoby0Wiu8xu9-44" target="DjCG3_lMmoby0Wiu8xu9-16" edge="1">
          <mxGeometry relative="1" as="geometry" />
        </mxCell>
        <mxCell id="DjCG3_lMmoby0Wiu8xu9-44" value="&lt;span style=&quot;font-size: 12px; font-weight: 700;&quot;&gt;Service&lt;/span&gt;" style="swimlane;childLayout=stackLayout;horizontal=1;startSize=50;horizontalStack=0;rounded=1;fontSize=14;fontStyle=0;strokeWidth=2;resizeParent=0;resizeLast=1;shadow=0;dashed=0;align=center;arcSize=4;whiteSpace=wrap;html=1;fillColor=#f8cecc;strokeColor=#b85450;" parent="1" vertex="1">
          <mxGeometry x="80" y="345" width="160" height="80" as="geometry" />
        </mxCell>
        <mxCell id="DjCG3_lMmoby0Wiu8xu9-45" style="edgeStyle=orthogonalEdgeStyle;rounded=0;orthogonalLoop=1;jettySize=auto;html=1;exitX=0.5;exitY=1;exitDx=0;exitDy=0;" parent="DjCG3_lMmoby0Wiu8xu9-44" edge="1">
          <mxGeometry relative="1" as="geometry">
            <mxPoint x="80" y="80" as="sourcePoint" />
            <mxPoint x="80" y="80" as="targetPoint" />
          </mxGeometry>
        </mxCell>
        <mxCell id="cWcYmXvJpGI1tMLVh2xf-4" value="Estrategia" style="text;html=1;align=center;verticalAlign=middle;whiteSpace=wrap;rounded=0;" parent="DjCG3_lMmoby0Wiu8xu9-44" vertex="1">
          <mxGeometry y="50" width="160" height="30" as="geometry" />
        </mxCell>
        <mxCell id="DjCG3_lMmoby0Wiu8xu9-46" value="&lt;span style=&quot;font-size: 12px; font-weight: 700;&quot;&gt;Resource&lt;/span&gt;" style="swimlane;childLayout=stackLayout;horizontal=1;startSize=50;horizontalStack=0;rounded=1;fontSize=14;fontStyle=0;strokeWidth=2;resizeParent=0;resizeLast=1;shadow=0;dashed=0;align=center;arcSize=4;whiteSpace=wrap;html=1;fillColor=#fff2cc;strokeColor=#d6b656;" parent="1" vertex="1">
          <mxGeometry x="80" y="500" width="160" height="80" as="geometry" />
        </mxCell>
        <mxCell id="DjCG3_lMmoby0Wiu8xu9-47" style="edgeStyle=orthogonalEdgeStyle;rounded=0;orthogonalLoop=1;jettySize=auto;html=1;exitX=0.5;exitY=1;exitDx=0;exitDy=0;" parent="DjCG3_lMmoby0Wiu8xu9-46" edge="1">
          <mxGeometry relative="1" as="geometry">
            <mxPoint x="80" y="80" as="sourcePoint" />
            <mxPoint x="80" y="80" as="targetPoint" />
          </mxGeometry>
        </mxCell>
        <mxCell id="DjCG3_lMmoby0Wiu8xu9-48" value="exposes" style="edgeStyle=orthogonalEdgeStyle;rounded=0;orthogonalLoop=1;jettySize=auto;html=1;entryX=0.5;entryY=0;entryDx=0;entryDy=0;fontSize=19;" parent="1" source="DjCG3_lMmoby0Wiu8xu9-44" target="DjCG3_lMmoby0Wiu8xu9-46" edge="1">
          <mxGeometry x="-0.3333" y="40" relative="1" as="geometry">
            <mxPoint as="offset" />
          </mxGeometry>
        </mxCell>
        <mxCell id="DjCG3_lMmoby0Wiu8xu9-70" style="edgeStyle=orthogonalEdgeStyle;rounded=0;orthogonalLoop=1;jettySize=auto;html=1;entryX=0.5;entryY=1;entryDx=0;entryDy=0;exitX=0;exitY=0.25;exitDx=0;exitDy=0;" parent="1" source="DjCG3_lMmoby0Wiu8xu9-51" target="DjCG3_lMmoby0Wiu8xu9-46" edge="1">
          <mxGeometry relative="1" as="geometry">
            <Array as="points">
              <mxPoint x="160" y="640" />
            </Array>
          </mxGeometry>
        </mxCell>
        <mxCell id="DjCG3_lMmoby0Wiu8xu9-71" value="&lt;span style=&quot;font-size: 19px;&quot;&gt;hosts&lt;/span&gt;" style="edgeStyle=orthogonalEdgeStyle;rounded=0;orthogonalLoop=1;jettySize=auto;html=1;entryX=0;entryY=0.25;entryDx=0;entryDy=0;exitX=1;exitY=0.25;exitDx=0;exitDy=0;labelBackgroundColor=none;" parent="1" source="DjCG3_lMmoby0Wiu8xu9-51" target="DjCG3_lMmoby0Wiu8xu9-53" edge="1">
          <mxGeometry x="0.2222" y="-20" relative="1" as="geometry">
            <mxPoint as="offset" />
            <Array as="points">
              <mxPoint x="450" y="640" />
              <mxPoint x="450" y="590" />
            </Array>
          </mxGeometry>
        </mxCell>
        <mxCell id="DjCG3_lMmoby0Wiu8xu9-51" value="&lt;span style=&quot;font-size: 12px; font-weight: 700;&quot;&gt;OnDevice Resource&lt;/span&gt;" style="swimlane;childLayout=stackLayout;horizontal=1;startSize=50;horizontalStack=0;rounded=1;fontSize=14;fontStyle=0;strokeWidth=2;resizeParent=0;resizeLast=1;shadow=0;dashed=0;align=center;arcSize=4;whiteSpace=wrap;html=1;fillColor=#fff2cc;strokeColor=#d6b656;" parent="1" vertex="1">
          <mxGeometry x="240" y="620" width="160" height="80" as="geometry" />
        </mxCell>
        <mxCell id="DjCG3_lMmoby0Wiu8xu9-52" style="edgeStyle=orthogonalEdgeStyle;rounded=0;orthogonalLoop=1;jettySize=auto;html=1;exitX=0.5;exitY=1;exitDx=0;exitDy=0;" parent="DjCG3_lMmoby0Wiu8xu9-51" edge="1">
          <mxGeometry relative="1" as="geometry">
            <mxPoint x="80" y="80" as="sourcePoint" />
            <mxPoint x="80" y="80" as="targetPoint" />
          </mxGeometry>
        </mxCell>
        <mxCell id="cWcYmXvJpGI1tMLVh2xf-2" value="Memoria" style="text;html=1;align=center;verticalAlign=middle;whiteSpace=wrap;rounded=0;" parent="DjCG3_lMmoby0Wiu8xu9-51" vertex="1">
          <mxGeometry y="50" width="160" height="30" as="geometry" />
        </mxCell>
        <mxCell id="DjCG3_lMmoby0Wiu8xu9-53" value="&lt;span style=&quot;font-size: 12px; font-weight: 700;&quot;&gt;Device&lt;/span&gt;" style="swimlane;childLayout=stackLayout;horizontal=1;startSize=50;horizontalStack=0;rounded=1;fontSize=14;fontStyle=0;strokeWidth=2;resizeParent=0;resizeLast=1;shadow=0;dashed=0;align=center;arcSize=4;whiteSpace=wrap;html=1;fillColor=#bababa;strokeColor=#424342;" parent="1" vertex="1">
          <mxGeometry x="860" y="570" width="160" height="80" as="geometry" />
        </mxCell>
        <mxCell id="DjCG3_lMmoby0Wiu8xu9-54" style="edgeStyle=orthogonalEdgeStyle;rounded=0;orthogonalLoop=1;jettySize=auto;html=1;exitX=0.5;exitY=1;exitDx=0;exitDy=0;" parent="DjCG3_lMmoby0Wiu8xu9-53" edge="1">
          <mxGeometry relative="1" as="geometry">
            <mxPoint x="79.99999999999989" y="79.99999999999989" as="sourcePoint" />
            <mxPoint x="79.99999999999989" y="79.99999999999989" as="targetPoint" />
          </mxGeometry>
        </mxCell>
        <mxCell id="DjCG3_lMmoby0Wiu8xu9-55" value="ESP-32 o ARDUINO" style="text;html=1;align=center;verticalAlign=middle;whiteSpace=wrap;rounded=0;" parent="DjCG3_lMmoby0Wiu8xu9-53" vertex="1">
          <mxGeometry y="50" width="160" height="30" as="geometry" />
        </mxCell>
        <mxCell id="DjCG3_lMmoby0Wiu8xu9-72" value="&lt;font style=&quot;font-size: 19px;&quot;&gt;attached to&lt;/font&gt;" style="edgeStyle=orthogonalEdgeStyle;rounded=0;orthogonalLoop=1;jettySize=auto;html=1;entryX=0.5;entryY=1;entryDx=0;entryDy=0;labelBackgroundColor=none;exitX=0.5;exitY=0;exitDx=0;exitDy=0;" parent="1" source="DjCG3_lMmoby0Wiu8xu9-56" target="DjCG3_lMmoby0Wiu8xu9-55" edge="1">
          <mxGeometry x="-0.3529" y="-30" relative="1" as="geometry">
            <mxPoint as="offset" />
            <Array as="points">
              <mxPoint x="690" y="690" />
              <mxPoint x="940" y="690" />
            </Array>
          </mxGeometry>
        </mxCell>
        <mxCell id="OWOHfKba-ebB4ny3hYLN-2" value="monitors" style="edgeStyle=orthogonalEdgeStyle;rounded=0;orthogonalLoop=1;jettySize=auto;html=1;entryX=1;entryY=0.25;entryDx=0;entryDy=0;labelBackgroundColor=none;fontSize=18;exitX=0.5;exitY=1;exitDx=0;exitDy=0;" parent="1" source="DjCG3_lMmoby0Wiu8xu9-58" target="DjCG3_lMmoby0Wiu8xu9-26" edge="1">
          <mxGeometry x="0.8746" y="-15" relative="1" as="geometry">
            <Array as="points">
              <mxPoint x="690" y="910" />
              <mxPoint x="1350" y="910" />
              <mxPoint x="1350" y="345" />
            </Array>
            <mxPoint as="offset" />
          </mxGeometry>
        </mxCell>
        <mxCell id="DjCG3_lMmoby0Wiu8xu9-56" value="&lt;span style=&quot;font-size: 12px; font-weight: 700;&quot;&gt;Sensor&lt;/span&gt;" style="swimlane;childLayout=stackLayout;horizontal=1;startSize=50;horizontalStack=0;rounded=1;fontSize=14;fontStyle=0;strokeWidth=2;resizeParent=0;resizeLast=1;shadow=0;dashed=0;align=center;arcSize=4;whiteSpace=wrap;html=1;fillColor=#bababa;strokeColor=#424342;" parent="1" vertex="1">
          <mxGeometry x="610" y="740" width="160" height="80" as="geometry" />
        </mxCell>
        <mxCell id="DjCG3_lMmoby0Wiu8xu9-57" style="edgeStyle=orthogonalEdgeStyle;rounded=0;orthogonalLoop=1;jettySize=auto;html=1;exitX=0.5;exitY=1;exitDx=0;exitDy=0;" parent="DjCG3_lMmoby0Wiu8xu9-56" edge="1">
          <mxGeometry relative="1" as="geometry">
            <mxPoint x="79.99999999999989" y="79.99999999999989" as="sourcePoint" />
            <mxPoint x="79.99999999999989" y="79.99999999999989" as="targetPoint" />
          </mxGeometry>
        </mxCell>
        <mxCell id="DjCG3_lMmoby0Wiu8xu9-58" value="Sensor infrarojo" style="text;html=1;align=center;verticalAlign=middle;whiteSpace=wrap;rounded=0;" parent="DjCG3_lMmoby0Wiu8xu9-56" vertex="1">
          <mxGeometry y="50" width="160" height="30" as="geometry" />
        </mxCell>
        <mxCell id="DjCG3_lMmoby0Wiu8xu9-73" value="attached to" style="edgeStyle=orthogonalEdgeStyle;rounded=0;orthogonalLoop=1;jettySize=auto;html=1;labelBackgroundColor=none;fontSize=19;" parent="1" source="DjCG3_lMmoby0Wiu8xu9-60" target="DjCG3_lMmoby0Wiu8xu9-55" edge="1">
          <mxGeometry x="-0.5556" y="-60" relative="1" as="geometry">
            <mxPoint as="offset" />
          </mxGeometry>
        </mxCell>
        <mxCell id="DjCG3_lMmoby0Wiu8xu9-60" value="&lt;span style=&quot;font-size: 12px;&quot;&gt;&lt;b&gt;Sensor&lt;/b&gt;&lt;/span&gt;" style="swimlane;childLayout=stackLayout;horizontal=1;startSize=50;horizontalStack=0;rounded=1;fontSize=14;fontStyle=0;strokeWidth=2;resizeParent=0;resizeLast=1;shadow=0;dashed=0;align=center;arcSize=4;whiteSpace=wrap;html=1;fillColor=#bababa;strokeColor=#424342;" parent="1" vertex="1">
          <mxGeometry x="860" y="740" width="160" height="80" as="geometry" />
        </mxCell>
        <mxCell id="DjCG3_lMmoby0Wiu8xu9-61" style="edgeStyle=orthogonalEdgeStyle;rounded=0;orthogonalLoop=1;jettySize=auto;html=1;exitX=0.5;exitY=1;exitDx=0;exitDy=0;" parent="DjCG3_lMmoby0Wiu8xu9-60" edge="1">
          <mxGeometry relative="1" as="geometry">
            <mxPoint x="79.99999999999989" y="79.99999999999989" as="sourcePoint" />
            <mxPoint x="79.99999999999989" y="79.99999999999989" as="targetPoint" />
          </mxGeometry>
        </mxCell>
        <mxCell id="DjCG3_lMmoby0Wiu8xu9-62" value="Ultrasónico" style="text;html=1;align=center;verticalAlign=middle;whiteSpace=wrap;rounded=0;" parent="DjCG3_lMmoby0Wiu8xu9-60" vertex="1">
          <mxGeometry y="50" width="160" height="30" as="geometry" />
        </mxCell>
        <mxCell id="DjCG3_lMmoby0Wiu8xu9-64" value="with" style="edgeStyle=orthogonalEdgeStyle;rounded=0;orthogonalLoop=1;jettySize=auto;html=1;entryX=0.75;entryY=1;entryDx=0;entryDy=0;dashed=1;dashPattern=8 8;strokeWidth=3;fontSize=19;" parent="1" target="DjCG3_lMmoby0Wiu8xu9-16" edge="1">
          <mxGeometry x="-0.6884" y="-17" relative="1" as="geometry">
            <mxPoint x="580" y="477" as="sourcePoint" />
            <mxPoint x="360" y="260" as="targetPoint" />
            <mxPoint as="offset" />
          </mxGeometry>
        </mxCell>
        <mxCell id="DjCG3_lMmoby0Wiu8xu9-67" value="&#xa;&lt;span style=&quot;color: rgb(0, 0, 0); font-family: Helvetica; font-size: 19px; font-style: normal; font-variant-ligatures: normal; font-variant-caps: normal; font-weight: 400; letter-spacing: normal; orphans: 2; text-align: center; text-indent: 0px; text-transform: none; widows: 2; word-spacing: 0px; -webkit-text-stroke-width: 0px; white-space: nowrap; text-decoration-thickness: initial; text-decoration-style: initial; text-decoration-color: initial; float: none; display: inline !important;&quot;&gt;associated&lt;/span&gt;&#xa;&#xa;" style="edgeStyle=orthogonalEdgeStyle;rounded=0;orthogonalLoop=1;jettySize=auto;html=1;entryX=1;entryY=0.75;entryDx=0;entryDy=0;labelBackgroundColor=none;" parent="1" source="DjCG3_lMmoby0Wiu8xu9-43" target="DjCG3_lMmoby0Wiu8xu9-44" edge="1">
          <mxGeometry x="-0.4607" y="20" relative="1" as="geometry">
            <Array as="points">
              <mxPoint x="320" y="510" />
              <mxPoint x="320" y="405" />
            </Array>
            <mxPoint as="offset" />
          </mxGeometry>
        </mxCell>
        <mxCell id="DjCG3_lMmoby0Wiu8xu9-68" value="&lt;span style=&quot;font-size: 19px;&quot;&gt;associated with&lt;/span&gt;" style="edgeStyle=orthogonalEdgeStyle;rounded=0;orthogonalLoop=1;jettySize=auto;html=1;entryX=1.014;entryY=0.574;entryDx=0;entryDy=0;entryPerimeter=0;exitX=0.5;exitY=1;exitDx=0;exitDy=0;labelBackgroundColor=none;" parent="1" source="DjCG3_lMmoby0Wiu8xu9-43" target="DjCG3_lMmoby0Wiu8xu9-46" edge="1">
          <mxGeometry x="-0.0053" y="11" relative="1" as="geometry">
            <mxPoint as="offset" />
          </mxGeometry>
        </mxCell>
        <mxCell id="OWOHfKba-ebB4ny3hYLN-3" value="&lt;font style=&quot;font-size: 19px;&quot;&gt;acts on&lt;/font&gt;" style="edgeStyle=orthogonalEdgeStyle;rounded=0;orthogonalLoop=1;jettySize=auto;html=1;exitX=0.5;exitY=1;exitDx=0;exitDy=0;labelBackgroundColor=none;entryX=1;entryY=0.25;entryDx=0;entryDy=0;" parent="1" source="1U1Mx15DlKrWZK0IdF5e-4" target="DjCG3_lMmoby0Wiu8xu9-31" edge="1">
          <mxGeometry x="0.7263" y="-13" relative="1" as="geometry">
            <mxPoint x="920" y="770" as="sourcePoint" />
            <mxPoint x="1150" y="495" as="targetPoint" />
            <Array as="points">
              <mxPoint x="1170" y="880" />
              <mxPoint x="1310" y="880" />
              <mxPoint x="1310" y="503" />
            </Array>
            <mxPoint as="offset" />
          </mxGeometry>
        </mxCell>
        <mxCell id="EfY7YHF9wOGOSHWfyLKP-1" value="&lt;span style=&quot;font-size: 12px; font-weight: 700;&quot;&gt;Human&amp;nbsp;&lt;/span&gt;&lt;span style=&quot;font-size: 12px; font-weight: 700;&quot;&gt;Oponent&lt;/span&gt;" style="swimlane;childLayout=stackLayout;horizontal=1;startSize=50;horizontalStack=0;rounded=1;fontSize=14;fontStyle=0;strokeWidth=2;resizeParent=0;resizeLast=1;shadow=0;dashed=0;align=center;arcSize=4;whiteSpace=wrap;html=1;fillColor=#dae8fc;strokeColor=#6c8ebf;" parent="1" vertex="1">
          <mxGeometry x="550" y="200" width="160" height="80" as="geometry" />
        </mxCell>
        <mxCell id="EfY7YHF9wOGOSHWfyLKP-2" style="edgeStyle=orthogonalEdgeStyle;rounded=0;orthogonalLoop=1;jettySize=auto;html=1;exitX=0.5;exitY=1;exitDx=0;exitDy=0;" parent="EfY7YHF9wOGOSHWfyLKP-1" edge="1">
          <mxGeometry relative="1" as="geometry">
            <mxPoint x="79.99999999999989" y="79.99999999999989" as="sourcePoint" />
            <mxPoint x="79.99999999999989" y="79.99999999999989" as="targetPoint" />
          </mxGeometry>
        </mxCell>
        <mxCell id="EfY7YHF9wOGOSHWfyLKP-3" style="edgeStyle=orthogonalEdgeStyle;rounded=0;orthogonalLoop=1;jettySize=auto;html=1;endArrow=block;endFill=0;" parent="1" edge="1">
          <mxGeometry relative="1" as="geometry">
            <Array as="points">
              <mxPoint x="510" y="250" />
              <mxPoint x="510" y="200" />
              <mxPoint x="420" y="200" />
              <mxPoint x="420" y="100" />
            </Array>
            <mxPoint x="550" y="250" as="sourcePoint" />
            <mxPoint x="400" y="100" as="targetPoint" />
          </mxGeometry>
        </mxCell>
        <mxCell id="1U1Mx15DlKrWZK0IdF5e-6" style="edgeStyle=orthogonalEdgeStyle;rounded=0;orthogonalLoop=1;jettySize=auto;html=1;entryX=0.5;entryY=1;entryDx=0;entryDy=0;" parent="1" source="1U1Mx15DlKrWZK0IdF5e-2" target="DjCG3_lMmoby0Wiu8xu9-55" edge="1">
          <mxGeometry relative="1" as="geometry">
            <Array as="points">
              <mxPoint x="1170" y="690" />
              <mxPoint x="940" y="690" />
            </Array>
          </mxGeometry>
        </mxCell>
        <mxCell id="1U1Mx15DlKrWZK0IdF5e-7" value="&lt;span style=&quot;font-size: 19px; background-color: rgb(251, 251, 251);&quot;&gt;attached to&lt;/span&gt;" style="edgeLabel;html=1;align=center;verticalAlign=middle;resizable=0;points=[];" parent="1U1Mx15DlKrWZK0IdF5e-6" vertex="1" connectable="0">
          <mxGeometry x="-0.8273" y="-4" relative="1" as="geometry">
            <mxPoint x="56" y="8" as="offset" />
          </mxGeometry>
        </mxCell>
        <mxCell id="1U1Mx15DlKrWZK0IdF5e-8" style="edgeStyle=orthogonalEdgeStyle;rounded=0;orthogonalLoop=1;jettySize=auto;html=1;entryX=1;entryY=0.25;entryDx=0;entryDy=0;exitX=0.5;exitY=1;exitDx=0;exitDy=0;" parent="1" source="DjCG3_lMmoby0Wiu8xu9-62" target="DjCG3_lMmoby0Wiu8xu9-26" edge="1">
          <mxGeometry relative="1" as="geometry">
            <mxPoint x="1320" y="820" as="targetPoint" />
            <Array as="points">
              <mxPoint x="940" y="910" />
              <mxPoint x="1350" y="910" />
              <mxPoint x="1350" y="345" />
            </Array>
          </mxGeometry>
        </mxCell>
        <mxCell id="1U1Mx15DlKrWZK0IdF5e-2" value="&lt;span style=&quot;font-size: 12px;&quot;&gt;&lt;b&gt;Actuator&lt;/b&gt;&lt;/span&gt;" style="swimlane;childLayout=stackLayout;horizontal=1;startSize=50;horizontalStack=0;rounded=1;fontSize=14;fontStyle=0;strokeWidth=2;resizeParent=0;resizeLast=1;shadow=0;dashed=0;align=center;arcSize=4;whiteSpace=wrap;html=1;fillColor=#bababa;strokeColor=#424342;" parent="1" vertex="1">
          <mxGeometry x="1090" y="740" width="160" height="80" as="geometry" />
        </mxCell>
        <mxCell id="1U1Mx15DlKrWZK0IdF5e-3" style="edgeStyle=orthogonalEdgeStyle;rounded=0;orthogonalLoop=1;jettySize=auto;html=1;exitX=0.5;exitY=1;exitDx=0;exitDy=0;" parent="1U1Mx15DlKrWZK0IdF5e-2" edge="1">
          <mxGeometry relative="1" as="geometry">
            <mxPoint x="79.99999999999989" y="79.99999999999989" as="sourcePoint" />
            <mxPoint x="79.99999999999989" y="79.99999999999989" as="targetPoint" />
          </mxGeometry>
        </mxCell>
        <mxCell id="1U1Mx15DlKrWZK0IdF5e-4" value="Motores" style="text;html=1;align=center;verticalAlign=middle;whiteSpace=wrap;rounded=0;" parent="1U1Mx15DlKrWZK0IdF5e-2" vertex="1">
          <mxGeometry y="50" width="160" height="30" as="geometry" />
        </mxCell>
      </root>
    </mxGraphModel>
  </diagram>
  <diagram id="OJ2-Tq75dP8ErkwkTB6v" name="Página-3">
    <mxGraphModel dx="794" dy="378" grid="1" gridSize="10" guides="1" tooltips="1" connect="1" arrows="1" fold="1" page="1" pageScale="1" pageWidth="1400" pageHeight="850" math="0" shadow="0">
      <root>
        <mxCell id="0" />
        <mxCell id="1" parent="0" />
        <mxCell id="ix3_YTxjSZxnf9L6SLz6-1" value="&lt;span style=&quot;font-size: 12px; font-weight: 700;&quot;&gt;Virtual Entity:&lt;br&gt;Dojo&lt;/span&gt;" style="swimlane;childLayout=stackLayout;horizontal=1;startSize=50;horizontalStack=0;rounded=1;fontSize=14;fontStyle=0;strokeWidth=2;resizeParent=0;resizeLast=1;shadow=0;dashed=0;align=center;arcSize=4;whiteSpace=wrap;html=1;fillColor=#d5e8d4;strokeColor=#82b366;" parent="1" vertex="1">
          <mxGeometry x="600" y="10" width="160" height="110" as="geometry" />
        </mxCell>
        <mxCell id="ix3_YTxjSZxnf9L6SLz6-2" style="edgeStyle=orthogonalEdgeStyle;rounded=0;orthogonalLoop=1;jettySize=auto;html=1;exitX=0.5;exitY=1;exitDx=0;exitDy=0;" parent="ix3_YTxjSZxnf9L6SLz6-1" edge="1">
          <mxGeometry relative="1" as="geometry">
            <mxPoint x="79.99999999999989" y="79.99999999999989" as="sourcePoint" />
            <mxPoint x="79.99999999999989" y="79.99999999999989" as="targetPoint" />
          </mxGeometry>
        </mxCell>
        <mxCell id="ix3_YTxjSZxnf9L6SLz6-3" value="EntityType : Dojo&lt;br&gt;ID: Dojo1" style="text;html=1;align=center;verticalAlign=middle;whiteSpace=wrap;rounded=0;" parent="ix3_YTxjSZxnf9L6SLz6-1" vertex="1">
          <mxGeometry y="50" width="160" height="60" as="geometry" />
        </mxCell>
        <mxCell id="ix3_YTxjSZxnf9L6SLz6-20" value="in room" style="edgeStyle=orthogonalEdgeStyle;rounded=0;orthogonalLoop=1;jettySize=auto;html=1;entryX=1;entryY=0.167;entryDx=0;entryDy=0;entryPerimeter=0;labelBackgroundColor=none;" parent="1" source="ix3_YTxjSZxnf9L6SLz6-9" target="ix3_YTxjSZxnf9L6SLz6-3" edge="1">
          <mxGeometry y="-10" relative="1" as="geometry">
            <mxPoint x="530" y="80" as="targetPoint" />
            <Array as="points">
              <mxPoint x="970" y="70" />
              <mxPoint x="970" y="70" />
            </Array>
            <mxPoint as="offset" />
          </mxGeometry>
        </mxCell>
        <mxCell id="ix3_YTxjSZxnf9L6SLz6-9" value="&lt;span style=&quot;font-size: 12px; font-weight: 700;&quot;&gt;Virtual Entity:&lt;br&gt;Minisumo&lt;/span&gt;" style="swimlane;childLayout=stackLayout;horizontal=1;startSize=50;horizontalStack=0;rounded=1;fontSize=14;fontStyle=0;strokeWidth=2;resizeParent=0;resizeLast=1;shadow=0;dashed=0;align=center;arcSize=4;whiteSpace=wrap;html=1;fillColor=#d5e8d4;strokeColor=#82b366;" parent="1" vertex="1">
          <mxGeometry x="1160" y="30" width="160" height="110" as="geometry" />
        </mxCell>
        <mxCell id="ix3_YTxjSZxnf9L6SLz6-10" style="edgeStyle=orthogonalEdgeStyle;rounded=0;orthogonalLoop=1;jettySize=auto;html=1;exitX=0.5;exitY=1;exitDx=0;exitDy=0;" parent="ix3_YTxjSZxnf9L6SLz6-9" edge="1">
          <mxGeometry relative="1" as="geometry">
            <mxPoint x="79.99999999999989" y="79.99999999999989" as="sourcePoint" />
            <mxPoint x="79.99999999999989" y="79.99999999999989" as="targetPoint" />
          </mxGeometry>
        </mxCell>
        <mxCell id="ix3_YTxjSZxnf9L6SLz6-11" value="EntityType : MiniSumo&lt;br&gt;ID: MiniSumo1&lt;br&gt;RoomID: MiniSumo1-1" style="text;html=1;align=center;verticalAlign=middle;whiteSpace=wrap;rounded=0;" parent="ix3_YTxjSZxnf9L6SLz6-9" vertex="1">
          <mxGeometry y="50" width="160" height="60" as="geometry" />
        </mxCell>
        <mxCell id="ix3_YTxjSZxnf9L6SLz6-12" value="&lt;span style=&quot;font-size: 12px;&quot;&gt;&lt;b&gt;Attribute:&lt;br&gt;superficieColor&lt;/b&gt;&lt;/span&gt;" style="swimlane;childLayout=stackLayout;horizontal=1;startSize=50;horizontalStack=0;rounded=1;fontSize=14;fontStyle=0;strokeWidth=2;resizeParent=0;resizeLast=1;shadow=0;dashed=0;align=center;arcSize=4;whiteSpace=wrap;html=1;fillColor=#fff2cc;strokeColor=#d6b656;" parent="1" vertex="1">
          <mxGeometry x="390" y="165" width="160" height="110" as="geometry" />
        </mxCell>
        <mxCell id="ix3_YTxjSZxnf9L6SLz6-13" style="edgeStyle=orthogonalEdgeStyle;rounded=0;orthogonalLoop=1;jettySize=auto;html=1;exitX=0.5;exitY=1;exitDx=0;exitDy=0;" parent="ix3_YTxjSZxnf9L6SLz6-12" edge="1">
          <mxGeometry relative="1" as="geometry">
            <mxPoint x="79.99999999999989" y="79.99999999999989" as="sourcePoint" />
            <mxPoint x="79.99999999999989" y="79.99999999999989" as="targetPoint" />
          </mxGeometry>
        </mxCell>
        <mxCell id="ix3_YTxjSZxnf9L6SLz6-14" value="AttributeName: superficieColor&lt;br&gt;AttributeType: tonoColor" style="text;html=1;align=center;verticalAlign=middle;whiteSpace=wrap;rounded=0;" parent="ix3_YTxjSZxnf9L6SLz6-12" vertex="1">
          <mxGeometry y="50" width="160" height="60" as="geometry" />
        </mxCell>
        <mxCell id="ix3_YTxjSZxnf9L6SLz6-15" value="" style="endArrow=diamond;html=1;rounded=0;entryX=0.554;entryY=0.989;entryDx=0;entryDy=0;entryPerimeter=0;exitX=0.57;exitY=0.002;exitDx=0;exitDy=0;exitPerimeter=0;endFill=1;strokeWidth=2;" parent="1" source="ix3_YTxjSZxnf9L6SLz6-12" target="ix3_YTxjSZxnf9L6SLz6-3" edge="1">
          <mxGeometry width="50" height="50" relative="1" as="geometry">
            <mxPoint x="410" y="190" as="sourcePoint" />
            <mxPoint x="460" y="140" as="targetPoint" />
          </mxGeometry>
        </mxCell>
        <mxCell id="ix3_YTxjSZxnf9L6SLz6-16" value="has color" style="endArrow=classic;html=1;rounded=0;labelBackgroundColor=none;exitX=0.5;exitY=1;exitDx=0;exitDy=0;" parent="1" source="ix3_YTxjSZxnf9L6SLz6-14" target="ix3_YTxjSZxnf9L6SLz6-18" edge="1">
          <mxGeometry x="0.5267" y="-28" width="50" height="50" relative="1" as="geometry">
            <mxPoint x="470" y="275" as="sourcePoint" />
            <mxPoint x="370" y="355" as="targetPoint" />
            <mxPoint as="offset" />
          </mxGeometry>
        </mxCell>
        <mxCell id="ix3_YTxjSZxnf9L6SLz6-17" value="has color" style="endArrow=classic;html=1;rounded=0;entryX=0.25;entryY=0;entryDx=0;entryDy=0;labelBackgroundColor=none;exitX=0.5;exitY=1;exitDx=0;exitDy=0;" parent="1" source="ix3_YTxjSZxnf9L6SLz6-14" target="ix3_YTxjSZxnf9L6SLz6-19" edge="1">
          <mxGeometry x="0.7073" y="23" width="50" height="50" relative="1" as="geometry">
            <mxPoint x="470" y="275" as="sourcePoint" />
            <mxPoint x="570" y="355" as="targetPoint" />
            <mxPoint as="offset" />
          </mxGeometry>
        </mxCell>
        <mxCell id="ix3_YTxjSZxnf9L6SLz6-18" value="Superficie Blanca" style="rounded=0;whiteSpace=wrap;html=1;fillColor=#f5f5f5;fontColor=#333333;strokeColor=#666666;" parent="1" vertex="1">
          <mxGeometry x="340" y="355" width="120" height="60" as="geometry" />
        </mxCell>
        <mxCell id="ix3_YTxjSZxnf9L6SLz6-19" value="Linea Negra" style="rounded=0;whiteSpace=wrap;html=1;fillColor=#f5f5f5;fontColor=#333333;strokeColor=#666666;" parent="1" vertex="1">
          <mxGeometry x="480" y="355" width="120" height="60" as="geometry" />
        </mxCell>
        <mxCell id="ix3_YTxjSZxnf9L6SLz6-22" value="&lt;span style=&quot;font-size: 12px;&quot;&gt;&lt;b&gt;Attribute:&lt;br&gt;tipoDeVelocidad&lt;/b&gt;&lt;/span&gt;" style="swimlane;childLayout=stackLayout;horizontal=1;startSize=50;horizontalStack=0;rounded=1;fontSize=14;fontStyle=0;strokeWidth=2;resizeParent=0;resizeLast=1;shadow=0;dashed=0;align=center;arcSize=4;whiteSpace=wrap;html=1;fillColor=#fff2cc;strokeColor=#d6b656;" parent="1" vertex="1">
          <mxGeometry x="900" y="180" width="160" height="110" as="geometry" />
        </mxCell>
        <mxCell id="ix3_YTxjSZxnf9L6SLz6-23" style="edgeStyle=orthogonalEdgeStyle;rounded=0;orthogonalLoop=1;jettySize=auto;html=1;exitX=0.5;exitY=1;exitDx=0;exitDy=0;" parent="ix3_YTxjSZxnf9L6SLz6-22" edge="1">
          <mxGeometry relative="1" as="geometry">
            <mxPoint x="79.99999999999989" y="79.99999999999989" as="sourcePoint" />
            <mxPoint x="79.99999999999989" y="79.99999999999989" as="targetPoint" />
          </mxGeometry>
        </mxCell>
        <mxCell id="ix3_YTxjSZxnf9L6SLz6-24" value="AttributeName: Velocidad&lt;br&gt;AttributeType: state" style="text;html=1;align=center;verticalAlign=middle;whiteSpace=wrap;rounded=0;" parent="ix3_YTxjSZxnf9L6SLz6-22" vertex="1">
          <mxGeometry y="50" width="160" height="60" as="geometry" />
        </mxCell>
        <mxCell id="ix3_YTxjSZxnf9L6SLz6-25" value="" style="endArrow=diamond;html=1;rounded=0;exitX=0.57;exitY=0.002;exitDx=0;exitDy=0;exitPerimeter=0;endFill=1;strokeWidth=2;entryX=0;entryY=0.5;entryDx=0;entryDy=0;" parent="1" source="ix3_YTxjSZxnf9L6SLz6-22" target="ix3_YTxjSZxnf9L6SLz6-11" edge="1">
          <mxGeometry width="50" height="50" relative="1" as="geometry">
            <mxPoint x="1100" y="201" as="sourcePoint" />
            <mxPoint x="1131" y="100" as="targetPoint" />
          </mxGeometry>
        </mxCell>
        <mxCell id="ix3_YTxjSZxnf9L6SLz6-26" value="is in state" style="endArrow=classic;html=1;rounded=0;labelBackgroundColor=none;exitX=0.5;exitY=1;exitDx=0;exitDy=0;" parent="1" source="ix3_YTxjSZxnf9L6SLz6-22" target="ix3_YTxjSZxnf9L6SLz6-28" edge="1">
          <mxGeometry x="-0.4798" y="-28" width="50" height="50" relative="1" as="geometry">
            <mxPoint x="1120" y="321" as="sourcePoint" />
            <mxPoint x="1020" y="401" as="targetPoint" />
            <mxPoint as="offset" />
          </mxGeometry>
        </mxCell>
        <mxCell id="ix3_YTxjSZxnf9L6SLz6-27" value="is in state" style="endArrow=classic;html=1;rounded=0;entryX=0.25;entryY=0;entryDx=0;entryDy=0;labelBackgroundColor=none;exitX=0.5;exitY=1;exitDx=0;exitDy=0;" parent="1" source="ix3_YTxjSZxnf9L6SLz6-22" target="ix3_YTxjSZxnf9L6SLz6-29" edge="1">
          <mxGeometry x="-0.5501" y="34" width="50" height="50" relative="1" as="geometry">
            <mxPoint x="1120" y="321" as="sourcePoint" />
            <mxPoint x="1220" y="401" as="targetPoint" />
            <mxPoint as="offset" />
          </mxGeometry>
        </mxCell>
        <mxCell id="ix3_YTxjSZxnf9L6SLz6-28" value="Rapido" style="rounded=0;whiteSpace=wrap;html=1;fillColor=#f5f5f5;fontColor=#333333;strokeColor=#666666;" parent="1" vertex="1">
          <mxGeometry x="810" y="490" width="120" height="60" as="geometry" />
        </mxCell>
        <mxCell id="ix3_YTxjSZxnf9L6SLz6-29" value="Lento" style="rounded=0;whiteSpace=wrap;html=1;fillColor=#f5f5f5;fontColor=#333333;strokeColor=#666666;" parent="1" vertex="1">
          <mxGeometry x="980" y="490" width="120" height="60" as="geometry" />
        </mxCell>
        <mxCell id="2Ej1JdTg26UBy5QQKAz5-8" value="&lt;span style=&quot;font-size: 12px;&quot;&gt;&lt;b&gt;Attribute:&lt;br&gt;Espacio&lt;/b&gt;&lt;/span&gt;" style="swimlane;childLayout=stackLayout;horizontal=1;startSize=50;horizontalStack=0;rounded=1;fontSize=14;fontStyle=0;strokeWidth=2;resizeParent=0;resizeLast=1;shadow=0;dashed=0;align=center;arcSize=4;whiteSpace=wrap;html=1;fillColor=#fff2cc;strokeColor=#d6b656;" parent="1" vertex="1">
          <mxGeometry x="660" y="165" width="160" height="110" as="geometry" />
        </mxCell>
        <mxCell id="2Ej1JdTg26UBy5QQKAz5-9" style="edgeStyle=orthogonalEdgeStyle;rounded=0;orthogonalLoop=1;jettySize=auto;html=1;exitX=0.5;exitY=1;exitDx=0;exitDy=0;" parent="2Ej1JdTg26UBy5QQKAz5-8" edge="1">
          <mxGeometry relative="1" as="geometry">
            <mxPoint x="79.99999999999989" y="79.99999999999989" as="sourcePoint" />
            <mxPoint x="79.99999999999989" y="79.99999999999989" as="targetPoint" />
          </mxGeometry>
        </mxCell>
        <mxCell id="2Ej1JdTg26UBy5QQKAz5-10" value="AttributeName: Espacio&lt;br&gt;AttributeType: boolean" style="text;html=1;align=center;verticalAlign=middle;whiteSpace=wrap;rounded=0;" parent="2Ej1JdTg26UBy5QQKAz5-8" vertex="1">
          <mxGeometry y="50" width="160" height="60" as="geometry" />
        </mxCell>
        <mxCell id="2Ej1JdTg26UBy5QQKAz5-11" value="" style="endArrow=diamond;html=1;rounded=0;entryX=0.5;entryY=1;entryDx=0;entryDy=0;exitX=0.57;exitY=0.002;exitDx=0;exitDy=0;exitPerimeter=0;endFill=1;strokeWidth=2;" parent="1" source="2Ej1JdTg26UBy5QQKAz5-8" target="ix3_YTxjSZxnf9L6SLz6-3" edge="1">
          <mxGeometry width="50" height="50" relative="1" as="geometry">
            <mxPoint x="730" y="281" as="sourcePoint" />
            <mxPoint x="759" y="220" as="targetPoint" />
          </mxGeometry>
        </mxCell>
        <mxCell id="2Ej1JdTg26UBy5QQKAz5-12" value="has boolean" style="endArrow=classic;html=1;rounded=0;labelBackgroundColor=none;exitX=0.5;exitY=1;exitDx=0;exitDy=0;" parent="1" source="2Ej1JdTg26UBy5QQKAz5-10" target="2Ej1JdTg26UBy5QQKAz5-14" edge="1">
          <mxGeometry x="0.5267" y="-28" width="50" height="50" relative="1" as="geometry">
            <mxPoint x="670" y="330" as="sourcePoint" />
            <mxPoint x="570" y="410" as="targetPoint" />
            <mxPoint as="offset" />
          </mxGeometry>
        </mxCell>
        <mxCell id="2Ej1JdTg26UBy5QQKAz5-13" value="has boolean" style="endArrow=classic;html=1;rounded=0;entryX=0.25;entryY=0;entryDx=0;entryDy=0;labelBackgroundColor=none;exitX=0.5;exitY=1;exitDx=0;exitDy=0;" parent="1" source="2Ej1JdTg26UBy5QQKAz5-10" target="2Ej1JdTg26UBy5QQKAz5-15" edge="1">
          <mxGeometry x="0.7073" y="23" width="50" height="50" relative="1" as="geometry">
            <mxPoint x="670" y="330" as="sourcePoint" />
            <mxPoint x="770" y="410" as="targetPoint" />
            <mxPoint as="offset" />
          </mxGeometry>
        </mxCell>
        <mxCell id="2Ej1JdTg26UBy5QQKAz5-14" value="Dentro" style="rounded=0;whiteSpace=wrap;html=1;fillColor=#f5f5f5;fontColor=#333333;strokeColor=#666666;" parent="1" vertex="1">
          <mxGeometry x="630" y="365" width="120" height="60" as="geometry" />
        </mxCell>
        <mxCell id="2Ej1JdTg26UBy5QQKAz5-15" value="Fuera" style="rounded=0;whiteSpace=wrap;html=1;fillColor=#f5f5f5;fontColor=#333333;strokeColor=#666666;" parent="1" vertex="1">
          <mxGeometry x="760" y="365" width="120" height="60" as="geometry" />
        </mxCell>
        <mxCell id="2Ej1JdTg26UBy5QQKAz5-16" value="&lt;span style=&quot;font-size: 12px;&quot;&gt;&lt;b&gt;Attribute:&lt;br&gt;Posicion&lt;/b&gt;&lt;/span&gt;" style="swimlane;childLayout=stackLayout;horizontal=1;startSize=50;horizontalStack=0;rounded=1;fontSize=14;fontStyle=0;strokeWidth=2;resizeParent=0;resizeLast=1;shadow=0;dashed=0;align=center;arcSize=4;whiteSpace=wrap;html=1;fillColor=#fff2cc;strokeColor=#d6b656;" parent="1" vertex="1">
          <mxGeometry x="1120" y="211" width="160" height="110" as="geometry" />
        </mxCell>
        <mxCell id="2Ej1JdTg26UBy5QQKAz5-17" style="edgeStyle=orthogonalEdgeStyle;rounded=0;orthogonalLoop=1;jettySize=auto;html=1;exitX=0.5;exitY=1;exitDx=0;exitDy=0;" parent="2Ej1JdTg26UBy5QQKAz5-16" edge="1">
          <mxGeometry relative="1" as="geometry">
            <mxPoint x="79.99999999999989" y="79.99999999999989" as="sourcePoint" />
            <mxPoint x="79.99999999999989" y="79.99999999999989" as="targetPoint" />
          </mxGeometry>
        </mxCell>
        <mxCell id="2Ej1JdTg26UBy5QQKAz5-18" value="AttributeName: Posicion&lt;br&gt;AttributeType: state" style="text;html=1;align=center;verticalAlign=middle;whiteSpace=wrap;rounded=0;" parent="2Ej1JdTg26UBy5QQKAz5-16" vertex="1">
          <mxGeometry y="50" width="160" height="60" as="geometry" />
        </mxCell>
        <mxCell id="2Ej1JdTg26UBy5QQKAz5-19" value="" style="endArrow=diamond;html=1;rounded=0;exitX=0.57;exitY=0.002;exitDx=0;exitDy=0;exitPerimeter=0;endFill=1;strokeWidth=2;entryX=0.25;entryY=1;entryDx=0;entryDy=0;" parent="1" source="2Ej1JdTg26UBy5QQKAz5-16" target="ix3_YTxjSZxnf9L6SLz6-11" edge="1">
          <mxGeometry width="50" height="50" relative="1" as="geometry">
            <mxPoint x="1520" y="201" as="sourcePoint" />
            <mxPoint x="1550" y="100" as="targetPoint" />
          </mxGeometry>
        </mxCell>
        <mxCell id="2Ej1JdTg26UBy5QQKAz5-20" value="is in state" style="endArrow=classic;html=1;rounded=0;labelBackgroundColor=none;exitX=0.5;exitY=1;exitDx=0;exitDy=0;entryX=0.5;entryY=0;entryDx=0;entryDy=0;" parent="1" source="2Ej1JdTg26UBy5QQKAz5-18" target="2Ej1JdTg26UBy5QQKAz5-22" edge="1">
          <mxGeometry x="-0.3548" y="-26" width="50" height="50" relative="1" as="geometry">
            <mxPoint x="1540" y="321" as="sourcePoint" />
            <mxPoint x="1440" y="401" as="targetPoint" />
            <mxPoint x="1" as="offset" />
          </mxGeometry>
        </mxCell>
        <mxCell id="2Ej1JdTg26UBy5QQKAz5-21" value="is in state" style="endArrow=classic;html=1;rounded=0;entryX=0.25;entryY=0;entryDx=0;entryDy=0;labelBackgroundColor=none;exitX=0.5;exitY=1;exitDx=0;exitDy=0;" parent="1" source="2Ej1JdTg26UBy5QQKAz5-18" target="2Ej1JdTg26UBy5QQKAz5-23" edge="1">
          <mxGeometry x="-0.3988" y="34" width="50" height="50" relative="1" as="geometry">
            <mxPoint x="1540" y="321" as="sourcePoint" />
            <mxPoint x="1640" y="401" as="targetPoint" />
            <mxPoint as="offset" />
          </mxGeometry>
        </mxCell>
        <mxCell id="2Ej1JdTg26UBy5QQKAz5-22" value="Giro" style="rounded=0;whiteSpace=wrap;html=1;fillColor=#f5f5f5;fontColor=#333333;strokeColor=#666666;" parent="1" vertex="1">
          <mxGeometry x="1060" y="560" width="120" height="60" as="geometry" />
        </mxCell>
        <mxCell id="2Ej1JdTg26UBy5QQKAz5-23" value="Desplazamiento" style="rounded=0;whiteSpace=wrap;html=1;fillColor=#f5f5f5;fontColor=#333333;strokeColor=#666666;" parent="1" vertex="1">
          <mxGeometry x="1190" y="560" width="120" height="60" as="geometry" />
        </mxCell>
        <mxCell id="2Ej1JdTg26UBy5QQKAz5-24" value="&lt;span style=&quot;font-size: 12px;&quot;&gt;&lt;b&gt;Attribute:&lt;br&gt;Oponente&lt;/b&gt;&lt;/span&gt;" style="swimlane;childLayout=stackLayout;horizontal=1;startSize=50;horizontalStack=0;rounded=1;fontSize=14;fontStyle=0;strokeWidth=2;resizeParent=0;resizeLast=1;shadow=0;dashed=0;align=center;arcSize=4;whiteSpace=wrap;html=1;fillColor=#fff2cc;strokeColor=#d6b656;" parent="1" vertex="1">
          <mxGeometry x="1310" y="250" width="160" height="110" as="geometry" />
        </mxCell>
        <mxCell id="2Ej1JdTg26UBy5QQKAz5-25" style="edgeStyle=orthogonalEdgeStyle;rounded=0;orthogonalLoop=1;jettySize=auto;html=1;exitX=0.5;exitY=1;exitDx=0;exitDy=0;" parent="2Ej1JdTg26UBy5QQKAz5-24" edge="1">
          <mxGeometry relative="1" as="geometry">
            <mxPoint x="79.99999999999989" y="79.99999999999989" as="sourcePoint" />
            <mxPoint x="79.99999999999989" y="79.99999999999989" as="targetPoint" />
          </mxGeometry>
        </mxCell>
        <mxCell id="2Ej1JdTg26UBy5QQKAz5-26" value="AttributeName: Oponente&lt;br&gt;AttributeType: boolean" style="text;html=1;align=center;verticalAlign=middle;whiteSpace=wrap;rounded=0;" parent="2Ej1JdTg26UBy5QQKAz5-24" vertex="1">
          <mxGeometry y="50" width="160" height="60" as="geometry" />
        </mxCell>
        <mxCell id="2Ej1JdTg26UBy5QQKAz5-27" value="" style="endArrow=diamond;html=1;rounded=0;exitX=0.57;exitY=0.002;exitDx=0;exitDy=0;exitPerimeter=0;endFill=1;strokeWidth=2;entryX=0.75;entryY=1;entryDx=0;entryDy=0;" parent="1" source="2Ej1JdTg26UBy5QQKAz5-24" target="ix3_YTxjSZxnf9L6SLz6-11" edge="1">
          <mxGeometry width="50" height="50" relative="1" as="geometry">
            <mxPoint x="1930" y="201" as="sourcePoint" />
            <mxPoint x="1961" y="100" as="targetPoint" />
          </mxGeometry>
        </mxCell>
        <mxCell id="2Ej1JdTg26UBy5QQKAz5-28" value="is in state" style="endArrow=classic;html=1;rounded=0;labelBackgroundColor=none;exitX=0.5;exitY=1;exitDx=0;exitDy=0;" parent="1" source="2Ej1JdTg26UBy5QQKAz5-24" target="2Ej1JdTg26UBy5QQKAz5-30" edge="1">
          <mxGeometry x="0.3731" y="-38" width="50" height="50" relative="1" as="geometry">
            <mxPoint x="1640" y="360" as="sourcePoint" />
            <mxPoint x="1540" y="440" as="targetPoint" />
            <mxPoint as="offset" />
          </mxGeometry>
        </mxCell>
        <mxCell id="2Ej1JdTg26UBy5QQKAz5-29" value="is in state" style="endArrow=classic;html=1;rounded=0;entryX=0.25;entryY=0;entryDx=0;entryDy=0;labelBackgroundColor=none;exitX=0.5;exitY=1;exitDx=0;exitDy=0;" parent="1" source="2Ej1JdTg26UBy5QQKAz5-26" target="2Ej1JdTg26UBy5QQKAz5-31" edge="1">
          <mxGeometry x="0.372" y="31" width="50" height="50" relative="1" as="geometry">
            <mxPoint x="1640" y="360" as="sourcePoint" />
            <mxPoint x="1740" y="440" as="targetPoint" />
            <mxPoint as="offset" />
          </mxGeometry>
        </mxCell>
        <mxCell id="2Ej1JdTg26UBy5QQKAz5-30" value="Identificado" style="rounded=0;whiteSpace=wrap;html=1;fillColor=#f5f5f5;fontColor=#333333;strokeColor=#666666;" parent="1" vertex="1">
          <mxGeometry x="1260" y="459" width="120" height="60" as="geometry" />
        </mxCell>
        <mxCell id="2Ej1JdTg26UBy5QQKAz5-31" value="No Identificado" style="rounded=0;whiteSpace=wrap;html=1;fillColor=#f5f5f5;fontColor=#333333;strokeColor=#666666;" parent="1" vertex="1">
          <mxGeometry x="1390" y="459" width="120" height="60" as="geometry" />
        </mxCell>
        <mxCell id="2Ej1JdTg26UBy5QQKAz5-32" value="&lt;span style=&quot;font-size: 12px;&quot;&gt;&lt;b&gt;Attribute:&lt;br&gt;Estrategia&lt;/b&gt;&lt;/span&gt;" style="swimlane;childLayout=stackLayout;horizontal=1;startSize=50;horizontalStack=0;rounded=1;fontSize=14;fontStyle=0;strokeWidth=2;resizeParent=0;resizeLast=1;shadow=0;dashed=0;align=center;arcSize=4;whiteSpace=wrap;html=1;fillColor=#fff2cc;strokeColor=#d6b656;" parent="1" vertex="1">
          <mxGeometry x="1530" y="245" width="160" height="110" as="geometry" />
        </mxCell>
        <mxCell id="2Ej1JdTg26UBy5QQKAz5-33" style="edgeStyle=orthogonalEdgeStyle;rounded=0;orthogonalLoop=1;jettySize=auto;html=1;exitX=0.5;exitY=1;exitDx=0;exitDy=0;" parent="2Ej1JdTg26UBy5QQKAz5-32" edge="1">
          <mxGeometry relative="1" as="geometry">
            <mxPoint x="79.99999999999989" y="79.99999999999989" as="sourcePoint" />
            <mxPoint x="79.99999999999989" y="79.99999999999989" as="targetPoint" />
          </mxGeometry>
        </mxCell>
        <mxCell id="2Ej1JdTg26UBy5QQKAz5-34" value="AttributeName: Estrategia&lt;br&gt;AttributeType: state" style="text;html=1;align=center;verticalAlign=middle;whiteSpace=wrap;rounded=0;" parent="2Ej1JdTg26UBy5QQKAz5-32" vertex="1">
          <mxGeometry y="50" width="160" height="60" as="geometry" />
        </mxCell>
        <mxCell id="2Ej1JdTg26UBy5QQKAz5-35" value="" style="endArrow=diamond;html=1;rounded=0;exitX=0.57;exitY=0.002;exitDx=0;exitDy=0;exitPerimeter=0;endFill=1;strokeWidth=2;entryX=1;entryY=0.5;entryDx=0;entryDy=0;" parent="1" source="2Ej1JdTg26UBy5QQKAz5-32" target="ix3_YTxjSZxnf9L6SLz6-11" edge="1">
          <mxGeometry width="50" height="50" relative="1" as="geometry">
            <mxPoint x="2340" y="201" as="sourcePoint" />
            <mxPoint x="2070" y="100" as="targetPoint" />
          </mxGeometry>
        </mxCell>
        <mxCell id="2Ej1JdTg26UBy5QQKAz5-36" value="is in state" style="endArrow=classic;html=1;rounded=0;labelBackgroundColor=none;exitX=0.5;exitY=1;exitDx=0;exitDy=0;" parent="1" source="2Ej1JdTg26UBy5QQKAz5-34" target="2Ej1JdTg26UBy5QQKAz5-38" edge="1">
          <mxGeometry x="-0.4454" y="-29" width="50" height="50" relative="1" as="geometry">
            <mxPoint x="1920" y="430" as="sourcePoint" />
            <mxPoint x="1820" y="510" as="targetPoint" />
            <mxPoint as="offset" />
          </mxGeometry>
        </mxCell>
        <mxCell id="2Ej1JdTg26UBy5QQKAz5-37" value="is in state" style="endArrow=classic;html=1;rounded=0;entryX=0.25;entryY=0;entryDx=0;entryDy=0;labelBackgroundColor=none;exitX=0.5;exitY=1;exitDx=0;exitDy=0;" parent="1" source="2Ej1JdTg26UBy5QQKAz5-34" target="2Ej1JdTg26UBy5QQKAz5-39" edge="1">
          <mxGeometry x="0.2511" y="29" width="50" height="50" relative="1" as="geometry">
            <mxPoint x="1920" y="430" as="sourcePoint" />
            <mxPoint x="2020" y="510" as="targetPoint" />
            <mxPoint as="offset" />
          </mxGeometry>
        </mxCell>
        <mxCell id="2Ej1JdTg26UBy5QQKAz5-38" value="Movimiento" style="rounded=0;whiteSpace=wrap;html=1;fillColor=#f5f5f5;fontColor=#333333;strokeColor=#666666;" parent="1" vertex="1">
          <mxGeometry x="1410" y="600" width="120" height="60" as="geometry" />
        </mxCell>
        <mxCell id="2Ej1JdTg26UBy5QQKAz5-39" value="Empuje" style="rounded=0;whiteSpace=wrap;html=1;fillColor=#f5f5f5;fontColor=#333333;strokeColor=#666666;" parent="1" vertex="1">
          <mxGeometry x="1550" y="600" width="120" height="60" as="geometry" />
        </mxCell>
        <mxCell id="2Ej1JdTg26UBy5QQKAz5-43" value="is in state" style="endArrow=classic;html=1;rounded=0;entryX=0.25;entryY=0;entryDx=0;entryDy=0;labelBackgroundColor=none;exitX=0.5;exitY=1;exitDx=0;exitDy=0;" parent="1" source="2Ej1JdTg26UBy5QQKAz5-34" target="2Ej1JdTg26UBy5QQKAz5-44" edge="1">
          <mxGeometry x="0.4092" y="29" width="50" height="50" relative="1" as="geometry">
            <mxPoint x="2060" y="399" as="sourcePoint" />
            <mxPoint x="2160" y="479" as="targetPoint" />
            <mxPoint as="offset" />
          </mxGeometry>
        </mxCell>
        <mxCell id="2Ej1JdTg26UBy5QQKAz5-44" value="Espera" style="rounded=0;whiteSpace=wrap;html=1;fillColor=#f5f5f5;fontColor=#333333;strokeColor=#666666;" parent="1" vertex="1">
          <mxGeometry x="1680" y="600" width="120" height="60" as="geometry" />
        </mxCell>
      </root>
    </mxGraphModel>
  </diagram>
</mxfile>
